<mxfile host="app.diagrams.net" modified="2023-09-18T02:19:13.549Z" agent="Mozilla/5.0 (Windows NT 10.0; Win64; x64) AppleWebKit/537.36 (KHTML, like Gecko) Chrome/86.0.4240.198 Safari/537.36" etag="QnAwVxcQphcra3gDG2TJ" version="21.7.5" type="github" pages="10">
  <diagram name="Page-1" id="13e1069c-82ec-6db2-03f1-153e76fe0fe0">
    <mxGraphModel dx="1434" dy="773" grid="1" gridSize="10" guides="1" tooltips="1" connect="1" arrows="1" fold="1" page="1" pageScale="1" pageWidth="1100" pageHeight="850" background="none" math="0" shadow="0">
      <root>
        <mxCell id="0" />
        <mxCell id="1" parent="0" />
        <mxCell id="7baba1c4bc27f4b0-2" value=":Object" style="shape=umlLifeline;perimeter=lifelinePerimeter;whiteSpace=wrap;html=1;container=1;collapsible=0;recursiveResize=0;outlineConnect=0;rounded=1;shadow=0;comic=0;labelBackgroundColor=none;strokeWidth=1;fontFamily=Verdana;fontSize=12;align=center;" parent="1" vertex="1">
          <mxGeometry x="240" y="80" width="100" height="580" as="geometry" />
        </mxCell>
        <mxCell id="7baba1c4bc27f4b0-10" value="" style="html=1;points=[];perimeter=orthogonalPerimeter;rounded=0;shadow=0;comic=0;labelBackgroundColor=none;strokeWidth=1;fontFamily=Verdana;fontSize=12;align=center;" parent="7baba1c4bc27f4b0-2" vertex="1">
          <mxGeometry x="45" y="100" width="10" height="230" as="geometry" />
        </mxCell>
        <mxCell id="7baba1c4bc27f4b0-3" value=":Object" style="shape=umlLifeline;perimeter=lifelinePerimeter;whiteSpace=wrap;html=1;container=1;collapsible=0;recursiveResize=0;outlineConnect=0;rounded=1;shadow=0;comic=0;labelBackgroundColor=none;strokeWidth=1;fontFamily=Verdana;fontSize=12;align=center;" parent="1" vertex="1">
          <mxGeometry x="400" y="80" width="100" height="580" as="geometry" />
        </mxCell>
        <mxCell id="7baba1c4bc27f4b0-13" value="" style="html=1;points=[];perimeter=orthogonalPerimeter;rounded=0;shadow=0;comic=0;labelBackgroundColor=none;strokeWidth=1;fontFamily=Verdana;fontSize=12;align=center;" parent="7baba1c4bc27f4b0-3" vertex="1">
          <mxGeometry x="45" y="120" width="10" height="200" as="geometry" />
        </mxCell>
        <mxCell id="7baba1c4bc27f4b0-4" value=":Object" style="shape=umlLifeline;perimeter=lifelinePerimeter;whiteSpace=wrap;html=1;container=1;collapsible=0;recursiveResize=0;outlineConnect=0;rounded=1;shadow=0;comic=0;labelBackgroundColor=none;strokeWidth=1;fontFamily=Verdana;fontSize=12;align=center;" parent="1" vertex="1">
          <mxGeometry x="540" y="80" width="100" height="580" as="geometry" />
        </mxCell>
        <mxCell id="7baba1c4bc27f4b0-5" value=":Object" style="shape=umlLifeline;perimeter=lifelinePerimeter;whiteSpace=wrap;html=1;container=1;collapsible=0;recursiveResize=0;outlineConnect=0;rounded=1;shadow=0;comic=0;labelBackgroundColor=none;strokeWidth=1;fontFamily=Verdana;fontSize=12;align=center;" parent="1" vertex="1">
          <mxGeometry x="680" y="80" width="100" height="580" as="geometry" />
        </mxCell>
        <mxCell id="7baba1c4bc27f4b0-6" value=":Object" style="shape=umlLifeline;perimeter=lifelinePerimeter;whiteSpace=wrap;html=1;container=1;collapsible=0;recursiveResize=0;outlineConnect=0;rounded=1;shadow=0;comic=0;labelBackgroundColor=none;strokeWidth=1;fontFamily=Verdana;fontSize=12;align=center;" parent="1" vertex="1">
          <mxGeometry x="820" y="80" width="100" height="580" as="geometry" />
        </mxCell>
        <mxCell id="7baba1c4bc27f4b0-7" value=":Object" style="shape=umlLifeline;perimeter=lifelinePerimeter;whiteSpace=wrap;html=1;container=1;collapsible=0;recursiveResize=0;outlineConnect=0;rounded=1;shadow=0;comic=0;labelBackgroundColor=none;strokeWidth=1;fontFamily=Verdana;fontSize=12;align=center;" parent="1" vertex="1">
          <mxGeometry x="960" y="80" width="100" height="580" as="geometry" />
        </mxCell>
        <mxCell id="7baba1c4bc27f4b0-8" value=":Object" style="shape=umlLifeline;perimeter=lifelinePerimeter;whiteSpace=wrap;html=1;container=1;collapsible=0;recursiveResize=0;outlineConnect=0;rounded=1;shadow=0;comic=0;labelBackgroundColor=none;strokeWidth=1;fontFamily=Verdana;fontSize=12;align=center;" parent="1" vertex="1">
          <mxGeometry x="100" y="80" width="100" height="580" as="geometry" />
        </mxCell>
        <mxCell id="7baba1c4bc27f4b0-9" value="" style="html=1;points=[];perimeter=orthogonalPerimeter;rounded=0;shadow=0;comic=0;labelBackgroundColor=none;strokeWidth=1;fontFamily=Verdana;fontSize=12;align=center;" parent="7baba1c4bc27f4b0-8" vertex="1">
          <mxGeometry x="45" y="100" width="10" height="440" as="geometry" />
        </mxCell>
        <mxCell id="7baba1c4bc27f4b0-16" value="" style="html=1;points=[];perimeter=orthogonalPerimeter;rounded=0;shadow=0;comic=0;labelBackgroundColor=none;strokeWidth=1;fontFamily=Verdana;fontSize=12;align=center;" parent="1" vertex="1">
          <mxGeometry x="585" y="220" width="10" height="180" as="geometry" />
        </mxCell>
        <mxCell id="7baba1c4bc27f4b0-17" value="dispatch" style="html=1;verticalAlign=bottom;endArrow=block;labelBackgroundColor=none;fontFamily=Verdana;fontSize=12;edgeStyle=elbowEdgeStyle;elbow=vertical;" parent="1" source="7baba1c4bc27f4b0-13" target="7baba1c4bc27f4b0-16" edge="1">
          <mxGeometry relative="1" as="geometry">
            <mxPoint x="510" y="220" as="sourcePoint" />
            <Array as="points">
              <mxPoint x="460" y="220" />
            </Array>
          </mxGeometry>
        </mxCell>
        <mxCell id="7baba1c4bc27f4b0-19" value="" style="html=1;points=[];perimeter=orthogonalPerimeter;rounded=0;shadow=0;comic=0;labelBackgroundColor=none;strokeWidth=1;fontFamily=Verdana;fontSize=12;align=center;" parent="1" vertex="1">
          <mxGeometry x="725" y="230" width="10" height="40" as="geometry" />
        </mxCell>
        <mxCell id="7baba1c4bc27f4b0-20" value="dispatch" style="html=1;verticalAlign=bottom;endArrow=block;entryX=0;entryY=0;labelBackgroundColor=none;fontFamily=Verdana;fontSize=12;edgeStyle=elbowEdgeStyle;elbow=vertical;" parent="1" source="7baba1c4bc27f4b0-16" target="7baba1c4bc27f4b0-19" edge="1">
          <mxGeometry relative="1" as="geometry">
            <mxPoint x="650" y="230" as="sourcePoint" />
          </mxGeometry>
        </mxCell>
        <mxCell id="7baba1c4bc27f4b0-21" value="return" style="html=1;verticalAlign=bottom;endArrow=open;dashed=1;endSize=8;labelBackgroundColor=none;fontFamily=Verdana;fontSize=12;edgeStyle=elbowEdgeStyle;elbow=vertical;" parent="1" source="7baba1c4bc27f4b0-19" target="7baba1c4bc27f4b0-16" edge="1">
          <mxGeometry relative="1" as="geometry">
            <mxPoint x="650" y="306" as="targetPoint" />
            <Array as="points">
              <mxPoint x="670" y="260" />
              <mxPoint x="700" y="260" />
            </Array>
          </mxGeometry>
        </mxCell>
        <mxCell id="7baba1c4bc27f4b0-22" value="" style="html=1;points=[];perimeter=orthogonalPerimeter;rounded=0;shadow=0;comic=0;labelBackgroundColor=none;strokeWidth=1;fontFamily=Verdana;fontSize=12;align=center;" parent="1" vertex="1">
          <mxGeometry x="585" y="440" width="10" height="140" as="geometry" />
        </mxCell>
        <mxCell id="7baba1c4bc27f4b0-23" value="dispatch" style="html=1;verticalAlign=bottom;endArrow=block;entryX=0;entryY=0;labelBackgroundColor=none;fontFamily=Verdana;fontSize=12;" parent="1" source="7baba1c4bc27f4b0-9" target="7baba1c4bc27f4b0-22" edge="1">
          <mxGeometry relative="1" as="geometry">
            <mxPoint x="510" y="420" as="sourcePoint" />
          </mxGeometry>
        </mxCell>
        <mxCell id="7baba1c4bc27f4b0-25" value="" style="html=1;points=[];perimeter=orthogonalPerimeter;rounded=0;shadow=0;comic=0;labelBackgroundColor=none;strokeColor=#000000;strokeWidth=1;fillColor=#FFFFFF;fontFamily=Verdana;fontSize=12;fontColor=#000000;align=center;" parent="1" vertex="1">
          <mxGeometry x="1005" y="460" width="10" height="30" as="geometry" />
        </mxCell>
        <mxCell id="7baba1c4bc27f4b0-26" value="dispatch" style="html=1;verticalAlign=bottom;endArrow=block;entryX=0;entryY=0;labelBackgroundColor=none;fontFamily=Verdana;fontSize=12;" parent="1" source="7baba1c4bc27f4b0-22" target="7baba1c4bc27f4b0-25" edge="1">
          <mxGeometry relative="1" as="geometry">
            <mxPoint x="930" y="340" as="sourcePoint" />
          </mxGeometry>
        </mxCell>
        <mxCell id="7baba1c4bc27f4b0-27" value="return" style="html=1;verticalAlign=bottom;endArrow=open;dashed=1;endSize=8;exitX=0;exitY=0.95;labelBackgroundColor=none;fontFamily=Verdana;fontSize=12;" parent="1" source="7baba1c4bc27f4b0-25" target="7baba1c4bc27f4b0-22" edge="1">
          <mxGeometry relative="1" as="geometry">
            <mxPoint x="930" y="416" as="targetPoint" />
          </mxGeometry>
        </mxCell>
        <mxCell id="7baba1c4bc27f4b0-28" value="" style="html=1;points=[];perimeter=orthogonalPerimeter;rounded=0;shadow=0;comic=0;labelBackgroundColor=none;strokeWidth=1;fontFamily=Verdana;fontSize=12;align=center;" parent="1" vertex="1">
          <mxGeometry x="870" y="550" width="10" height="60" as="geometry" />
        </mxCell>
        <mxCell id="7baba1c4bc27f4b0-29" value="dispatch" style="html=1;verticalAlign=bottom;endArrow=block;entryX=0;entryY=0;labelBackgroundColor=none;fontFamily=Verdana;fontSize=12;edgeStyle=elbowEdgeStyle;elbow=vertical;" parent="1" source="7baba1c4bc27f4b0-37" target="7baba1c4bc27f4b0-28" edge="1">
          <mxGeometry relative="1" as="geometry">
            <mxPoint x="800" y="550" as="sourcePoint" />
          </mxGeometry>
        </mxCell>
        <mxCell id="7baba1c4bc27f4b0-30" value="return" style="html=1;verticalAlign=bottom;endArrow=open;dashed=1;endSize=8;labelBackgroundColor=none;fontFamily=Verdana;fontSize=12;edgeStyle=elbowEdgeStyle;elbow=vertical;" parent="1" source="7baba1c4bc27f4b0-28" target="7baba1c4bc27f4b0-9" edge="1">
          <mxGeometry relative="1" as="geometry">
            <mxPoint x="800" y="626" as="targetPoint" />
            <Array as="points">
              <mxPoint x="570" y="600" />
            </Array>
          </mxGeometry>
        </mxCell>
        <mxCell id="7baba1c4bc27f4b0-11" value="dispatch" style="html=1;verticalAlign=bottom;endArrow=block;entryX=0;entryY=0;labelBackgroundColor=none;fontFamily=Verdana;fontSize=12;edgeStyle=elbowEdgeStyle;elbow=vertical;" parent="1" source="7baba1c4bc27f4b0-9" target="7baba1c4bc27f4b0-10" edge="1">
          <mxGeometry relative="1" as="geometry">
            <mxPoint x="220" y="190" as="sourcePoint" />
          </mxGeometry>
        </mxCell>
        <mxCell id="7baba1c4bc27f4b0-14" value="dispatch" style="html=1;verticalAlign=bottom;endArrow=block;entryX=0;entryY=0;labelBackgroundColor=none;fontFamily=Verdana;fontSize=12;edgeStyle=elbowEdgeStyle;elbow=vertical;" parent="1" source="7baba1c4bc27f4b0-10" target="7baba1c4bc27f4b0-13" edge="1">
          <mxGeometry relative="1" as="geometry">
            <mxPoint x="370" y="200" as="sourcePoint" />
          </mxGeometry>
        </mxCell>
        <mxCell id="7baba1c4bc27f4b0-34" value="" style="html=1;points=[];perimeter=orthogonalPerimeter;rounded=0;shadow=0;comic=0;labelBackgroundColor=none;strokeWidth=1;fontFamily=Verdana;fontSize=12;align=center;" parent="1" vertex="1">
          <mxGeometry x="590" y="300" width="10" height="70" as="geometry" />
        </mxCell>
        <mxCell id="7baba1c4bc27f4b0-35" value="dispatch" style="html=1;verticalAlign=bottom;endArrow=block;labelBackgroundColor=none;fontFamily=Verdana;fontSize=12;elbow=vertical;edgeStyle=orthogonalEdgeStyle;curved=1;entryX=1;entryY=0.286;entryPerimeter=0;exitX=1.038;exitY=0.345;exitPerimeter=0;" parent="1" source="7baba1c4bc27f4b0-16" target="7baba1c4bc27f4b0-34" edge="1">
          <mxGeometry relative="1" as="geometry">
            <mxPoint x="465" y="230" as="sourcePoint" />
            <mxPoint x="595" y="230" as="targetPoint" />
            <Array as="points">
              <mxPoint x="650" y="282" />
              <mxPoint x="650" y="320" />
            </Array>
          </mxGeometry>
        </mxCell>
        <mxCell id="7baba1c4bc27f4b0-36" value="dispatch" style="html=1;verticalAlign=bottom;endArrow=block;labelBackgroundColor=none;fontFamily=Verdana;fontSize=12;elbow=vertical;edgeStyle=orthogonalEdgeStyle;curved=1;exitX=1.066;exitY=0.713;exitPerimeter=0;" parent="1" source="7baba1c4bc27f4b0-34" edge="1">
          <mxGeometry relative="1" as="geometry">
            <mxPoint x="610.3333333333333" y="350" as="sourcePoint" />
            <mxPoint x="595" y="389" as="targetPoint" />
            <Array as="points">
              <mxPoint x="650" y="350" />
              <mxPoint x="650" y="389" />
            </Array>
          </mxGeometry>
        </mxCell>
        <mxCell id="7baba1c4bc27f4b0-37" value="" style="html=1;points=[];perimeter=orthogonalPerimeter;rounded=0;shadow=0;comic=0;labelBackgroundColor=none;strokeWidth=1;fontFamily=Verdana;fontSize=12;align=center;" parent="1" vertex="1">
          <mxGeometry x="590" y="520" width="10" height="40" as="geometry" />
        </mxCell>
        <mxCell id="7baba1c4bc27f4b0-39" value="dispatch" style="html=1;verticalAlign=bottom;endArrow=block;labelBackgroundColor=none;fontFamily=Verdana;fontSize=12;elbow=vertical;edgeStyle=orthogonalEdgeStyle;curved=1;entryX=1;entryY=0.286;entryPerimeter=0;exitX=1.038;exitY=0.345;exitPerimeter=0;" parent="1" edge="1">
          <mxGeometry relative="1" as="geometry">
            <mxPoint x="595.3333333333335" y="501" as="sourcePoint" />
            <mxPoint x="600.3333333333335" y="539.3333333333334" as="targetPoint" />
            <Array as="points">
              <mxPoint x="650" y="501" />
              <mxPoint x="650" y="539" />
            </Array>
          </mxGeometry>
        </mxCell>
        <mxCell id="7baba1c4bc27f4b0-40" value="Note" style="shape=note;whiteSpace=wrap;html=1;size=14;verticalAlign=top;align=left;spacingTop=-6;rounded=0;shadow=0;comic=0;labelBackgroundColor=none;strokeWidth=1;fontFamily=Verdana;fontSize=12" parent="1" vertex="1">
          <mxGeometry x="100" y="30" width="100" height="35" as="geometry" />
        </mxCell>
        <mxCell id="7baba1c4bc27f4b0-41" value="Note" style="shape=note;whiteSpace=wrap;html=1;size=14;verticalAlign=top;align=left;spacingTop=-6;rounded=0;shadow=0;comic=0;labelBackgroundColor=none;strokeWidth=1;fontFamily=Verdana;fontSize=12" parent="1" vertex="1">
          <mxGeometry x="240" y="30" width="100" height="35" as="geometry" />
        </mxCell>
        <mxCell id="7baba1c4bc27f4b0-42" value="Note" style="shape=note;whiteSpace=wrap;html=1;size=14;verticalAlign=top;align=left;spacingTop=-6;rounded=0;shadow=0;comic=0;labelBackgroundColor=none;strokeWidth=1;fontFamily=Verdana;fontSize=12" parent="1" vertex="1">
          <mxGeometry x="400" y="30" width="100" height="35" as="geometry" />
        </mxCell>
        <mxCell id="7baba1c4bc27f4b0-43" value="Note" style="shape=note;whiteSpace=wrap;html=1;size=14;verticalAlign=top;align=left;spacingTop=-6;rounded=0;shadow=0;comic=0;labelBackgroundColor=none;strokeWidth=1;fontFamily=Verdana;fontSize=12" parent="1" vertex="1">
          <mxGeometry x="540" y="30" width="100" height="35" as="geometry" />
        </mxCell>
        <mxCell id="7baba1c4bc27f4b0-44" value="Note" style="shape=note;whiteSpace=wrap;html=1;size=14;verticalAlign=top;align=left;spacingTop=-6;rounded=0;shadow=0;comic=0;labelBackgroundColor=none;strokeWidth=1;fontFamily=Verdana;fontSize=12" parent="1" vertex="1">
          <mxGeometry x="680" y="30" width="100" height="35" as="geometry" />
        </mxCell>
        <mxCell id="7baba1c4bc27f4b0-45" value="Note" style="shape=note;whiteSpace=wrap;html=1;size=14;verticalAlign=top;align=left;spacingTop=-6;rounded=0;shadow=0;comic=0;labelBackgroundColor=none;strokeWidth=1;fontFamily=Verdana;fontSize=12" parent="1" vertex="1">
          <mxGeometry x="820" y="30" width="100" height="35" as="geometry" />
        </mxCell>
        <mxCell id="7baba1c4bc27f4b0-46" value="Note" style="shape=note;whiteSpace=wrap;html=1;size=14;verticalAlign=top;align=left;spacingTop=-6;rounded=0;shadow=0;comic=0;labelBackgroundColor=none;strokeWidth=1;fontFamily=Verdana;fontSize=12" parent="1" vertex="1">
          <mxGeometry x="960" y="30" width="100" height="35" as="geometry" />
        </mxCell>
        <mxCell id="Ly3Mr6VgwBo3FDlo_K2C-1" value="" style="endArrow=classic;html=1;rounded=0;" parent="1" edge="1">
          <mxGeometry width="50" height="50" relative="1" as="geometry">
            <mxPoint x="520" y="320" as="sourcePoint" />
            <mxPoint x="570" y="270" as="targetPoint" />
          </mxGeometry>
        </mxCell>
        <mxCell id="8MhnRC5ZxViaSBgOeKAo-1" value=":Object" style="shape=umlLifeline;perimeter=lifelinePerimeter;whiteSpace=wrap;html=1;container=1;collapsible=0;recursiveResize=0;outlineConnect=0;rounded=1;shadow=0;comic=0;labelBackgroundColor=none;strokeWidth=1;fontFamily=Verdana;fontSize=12;align=center;" parent="1" vertex="1">
          <mxGeometry x="100" y="80" width="100" height="580" as="geometry" />
        </mxCell>
        <mxCell id="8MhnRC5ZxViaSBgOeKAo-2" value="" style="html=1;points=[];perimeter=orthogonalPerimeter;rounded=0;shadow=0;comic=0;labelBackgroundColor=none;strokeWidth=1;fontFamily=Verdana;fontSize=12;align=center;" parent="8MhnRC5ZxViaSBgOeKAo-1" vertex="1">
          <mxGeometry x="45" y="100" width="10" height="440" as="geometry" />
        </mxCell>
        <mxCell id="h9A5qm4Wvw0RDCGaVRqh-1" value="Pool" style="swimlane;childLayout=stackLayout;resizeParent=1;resizeParentMax=0;startSize=20;html=1;" parent="1" vertex="1">
          <mxGeometry x="370.00000000000045" y="160" width="360" height="480" as="geometry" />
        </mxCell>
        <mxCell id="h9A5qm4Wvw0RDCGaVRqh-2" value="Lane 1" style="swimlane;startSize=20;html=1;" parent="h9A5qm4Wvw0RDCGaVRqh-1" vertex="1">
          <mxGeometry y="20" width="120" height="460" as="geometry" />
        </mxCell>
        <mxCell id="h9A5qm4Wvw0RDCGaVRqh-3" value="Lane 2" style="swimlane;startSize=20;html=1;" parent="h9A5qm4Wvw0RDCGaVRqh-1" vertex="1">
          <mxGeometry x="120" y="20" width="120" height="460" as="geometry" />
        </mxCell>
        <mxCell id="h9A5qm4Wvw0RDCGaVRqh-4" value="Lane 3" style="swimlane;startSize=20;html=1;" parent="h9A5qm4Wvw0RDCGaVRqh-1" vertex="1">
          <mxGeometry x="240" y="20" width="120" height="460" as="geometry" />
        </mxCell>
      </root>
    </mxGraphModel>
  </diagram>
  <diagram id="naGP_ZNefW2CjVKZXNK9" name="1.vod-web编辑">
    <mxGraphModel dx="1434" dy="773" grid="1" gridSize="10" guides="1" tooltips="1" connect="1" arrows="1" fold="1" page="1" pageScale="1" pageWidth="827" pageHeight="1169" math="0" shadow="0">
      <root>
        <mxCell id="0" />
        <mxCell id="1" parent="0" />
        <mxCell id="78U8H3vz3ysczI6LlTVW-58" value="编辑元数据信息" style="shape=umlFrame;whiteSpace=wrap;html=1;width=133;height=28;" parent="1" vertex="1">
          <mxGeometry x="32" y="522" width="820" height="330" as="geometry" />
        </mxCell>
        <mxCell id="78U8H3vz3ysczI6LlTVW-15" value="获取元数据详情" style="shape=umlFrame;whiteSpace=wrap;html=1;width=120;height=30;" parent="1" vertex="1">
          <mxGeometry x="34" y="240" width="820" height="260" as="geometry" />
        </mxCell>
        <mxCell id="dul_UqaILi7yg5PHXs3L-1" value="VOD portal 前端" style="shape=umlLifeline;perimeter=lifelinePerimeter;whiteSpace=wrap;html=1;container=1;collapsible=0;recursiveResize=0;outlineConnect=0;rounded=1;shadow=0;comic=0;labelBackgroundColor=none;strokeWidth=1;fontFamily=Verdana;fontSize=12;align=center;" parent="1" vertex="1">
          <mxGeometry x="173" y="80" width="120" height="810" as="geometry" />
        </mxCell>
        <mxCell id="78U8H3vz3ysczI6LlTVW-13" value="&lt;span style=&quot;background-color: rgb(255, 255, 0);&quot;&gt;4. 根据metaKey解密出敏感信息并展示&lt;/span&gt;" style="edgeStyle=orthogonalEdgeStyle;html=1;align=left;spacingLeft=2;endArrow=block;rounded=0;curved=1;" parent="dul_UqaILi7yg5PHXs3L-1" edge="1">
          <mxGeometry relative="1" as="geometry">
            <mxPoint x="66" y="350" as="sourcePoint" />
            <Array as="points">
              <mxPoint x="97" y="350" />
              <mxPoint x="97" y="390" />
            </Array>
            <mxPoint x="66" y="390" as="targetPoint" />
          </mxGeometry>
        </mxCell>
        <mxCell id="78U8H3vz3ysczI6LlTVW-34" value="&lt;span style=&quot;font-size: 12px; background-color: rgb(248, 249, 250);&quot;&gt;1. 用户点击编辑元数据&lt;/span&gt;" style="html=1;verticalAlign=bottom;endArrow=block;curved=1;" parent="dul_UqaILi7yg5PHXs3L-1" edge="1">
          <mxGeometry x="-0.0966" y="3" width="80" relative="1" as="geometry">
            <mxPoint x="-99" y="229" as="sourcePoint" />
            <mxPoint x="56" y="228.5" as="targetPoint" />
            <Array as="points">
              <mxPoint x="-29" y="229" />
            </Array>
            <mxPoint as="offset" />
          </mxGeometry>
        </mxCell>
        <mxCell id="dul_UqaILi7yg5PHXs3L-4" value="VOD portal 后端" style="shape=umlLifeline;perimeter=lifelinePerimeter;whiteSpace=wrap;html=1;container=1;collapsible=0;recursiveResize=0;outlineConnect=0;rounded=1;shadow=0;comic=0;labelBackgroundColor=none;strokeWidth=1;fontFamily=Verdana;fontSize=12;align=center;" parent="1" vertex="1">
          <mxGeometry x="423" y="80" width="120" height="810" as="geometry" />
        </mxCell>
        <mxCell id="78U8H3vz3ysczI6LlTVW-7" value="" style="html=1;points=[];perimeter=orthogonalPerimeter;" parent="dul_UqaILi7yg5PHXs3L-4" vertex="1">
          <mxGeometry x="55" y="270" width="10" height="50" as="geometry" />
        </mxCell>
        <mxCell id="78U8H3vz3ysczI6LlTVW-46" value="" style="html=1;points=[];perimeter=orthogonalPerimeter;" parent="dul_UqaILi7yg5PHXs3L-4" vertex="1">
          <mxGeometry x="55" y="540" width="10" height="50" as="geometry" />
        </mxCell>
        <mxCell id="78U8H3vz3ysczI6LlTVW-49" value="" style="html=1;points=[];perimeter=orthogonalPerimeter;" parent="dul_UqaILi7yg5PHXs3L-4" vertex="1">
          <mxGeometry x="55" y="640" width="10" height="40" as="geometry" />
        </mxCell>
        <mxCell id="78U8H3vz3ysczI6LlTVW-50" value="8.执行导入job" style="edgeStyle=orthogonalEdgeStyle;html=1;align=left;spacingLeft=2;endArrow=block;rounded=0;entryX=1;entryY=0;curved=1;" parent="dul_UqaILi7yg5PHXs3L-4" target="78U8H3vz3ysczI6LlTVW-49" edge="1">
          <mxGeometry relative="1" as="geometry">
            <mxPoint x="60" y="620" as="sourcePoint" />
            <Array as="points">
              <mxPoint x="90" y="620" />
            </Array>
          </mxGeometry>
        </mxCell>
        <mxCell id="78U8H3vz3ysczI6LlTVW-57" value="9. 同步元数据信息" style="html=1;verticalAlign=bottom;endArrow=block;curved=1;" parent="dul_UqaILi7yg5PHXs3L-4" target="78U8H3vz3ysczI6LlTVW-51" edge="1">
          <mxGeometry width="80" relative="1" as="geometry">
            <mxPoint x="61" y="730" as="sourcePoint" />
            <mxPoint x="141" y="730" as="targetPoint" />
          </mxGeometry>
        </mxCell>
        <mxCell id="dul_UqaILi7yg5PHXs3L-23" value="" style="endArrow=classic;html=1;rounded=0;startArrow=none;" parent="1" source="78U8H3vz3ysczI6LlTVW-30" edge="1">
          <mxGeometry width="50" height="50" relative="1" as="geometry">
            <mxPoint x="73" y="310" as="sourcePoint" />
            <mxPoint x="232.5" y="310" as="targetPoint" />
          </mxGeometry>
        </mxCell>
        <mxCell id="78U8H3vz3ysczI6LlTVW-9" value="3.返回元数据详情" style="html=1;verticalAlign=bottom;endArrow=open;dashed=1;endSize=8;exitX=0;exitY=0.95;curved=1;" parent="1" source="78U8H3vz3ysczI6LlTVW-7" edge="1">
          <mxGeometry relative="1" as="geometry">
            <mxPoint x="244" y="398" as="targetPoint" />
          </mxGeometry>
        </mxCell>
        <mxCell id="78U8H3vz3ysczI6LlTVW-8" value="2. 根据Id获取元数据信息" style="html=1;verticalAlign=bottom;endArrow=block;entryX=0;entryY=0;curved=1;" parent="1" target="78U8H3vz3ysczI6LlTVW-7" edge="1">
          <mxGeometry relative="1" as="geometry">
            <mxPoint x="244" y="350" as="sourcePoint" />
          </mxGeometry>
        </mxCell>
        <mxCell id="78U8H3vz3ysczI6LlTVW-14" value="VNO" style="shape=umlActor;verticalLabelPosition=bottom;verticalAlign=top;html=1;" parent="1" vertex="1">
          <mxGeometry x="43" y="280" width="30" height="60" as="geometry" />
        </mxCell>
        <mxCell id="78U8H3vz3ysczI6LlTVW-16" value="前置条件" style="shape=umlFrame;whiteSpace=wrap;html=1;" parent="1" vertex="1">
          <mxGeometry x="34" y="130" width="820" height="80" as="geometry" />
        </mxCell>
        <mxCell id="78U8H3vz3ysczI6LlTVW-29" value="VNO从portal跳转到vodportal，带入解密后的masterKey,RSA私钥，vno shareKey,vno metaKey等信息&lt;br&gt;或者根据登录流程，直接登录获取解密后的masterKey,RSA私钥，vno shareKey,vno metaKey等信息" style="text;html=1;strokeColor=none;fillColor=none;align=left;verticalAlign=middle;whiteSpace=wrap;rounded=0;" parent="1" vertex="1">
          <mxGeometry x="63" y="170" width="750" height="30" as="geometry" />
        </mxCell>
        <mxCell id="78U8H3vz3ysczI6LlTVW-30" value="" style="html=1;points=[];perimeter=orthogonalPerimeter;" parent="1" vertex="1">
          <mxGeometry x="229" y="300" width="10" height="190" as="geometry" />
        </mxCell>
        <mxCell id="78U8H3vz3ysczI6LlTVW-35" value="5.vno录入元数据信息" style="html=1;verticalAlign=bottom;endArrow=block;curved=1;" parent="1" target="dul_UqaILi7yg5PHXs3L-1" edge="1">
          <mxGeometry width="80" relative="1" as="geometry">
            <mxPoint x="74" y="590" as="sourcePoint" />
            <mxPoint x="124" y="590" as="targetPoint" />
          </mxGeometry>
        </mxCell>
        <mxCell id="78U8H3vz3ysczI6LlTVW-36" value="VNO" style="shape=umlActor;verticalLabelPosition=bottom;verticalAlign=top;html=1;" parent="1" vertex="1">
          <mxGeometry x="41" y="560" width="30" height="60" as="geometry" />
        </mxCell>
        <mxCell id="78U8H3vz3ysczI6LlTVW-47" value="&lt;span style=&quot;background-color: rgb(255, 255, 51);&quot;&gt;6.根据metaKey(AES-CBC)&lt;br&gt;加密敏感信息并提交&lt;/span&gt;" style="html=1;verticalAlign=bottom;endArrow=block;entryX=0;entryY=0;curved=1;" parent="1" source="dul_UqaILi7yg5PHXs3L-1" target="78U8H3vz3ysczI6LlTVW-46" edge="1">
          <mxGeometry relative="1" as="geometry">
            <mxPoint x="408" y="620" as="sourcePoint" />
          </mxGeometry>
        </mxCell>
        <mxCell id="78U8H3vz3ysczI6LlTVW-48" value="7.返回提交成功" style="html=1;verticalAlign=bottom;endArrow=open;dashed=1;endSize=8;exitX=0;exitY=0.95;curved=1;" parent="1" source="78U8H3vz3ysczI6LlTVW-46" target="dul_UqaILi7yg5PHXs3L-1" edge="1">
          <mxGeometry relative="1" as="geometry">
            <mxPoint x="408" y="696" as="targetPoint" />
          </mxGeometry>
        </mxCell>
        <mxCell id="78U8H3vz3ysczI6LlTVW-51" value="search" style="shape=umlLifeline;perimeter=lifelinePerimeter;whiteSpace=wrap;html=1;container=1;collapsible=0;recursiveResize=0;outlineConnect=0;rounded=1;shadow=0;comic=0;labelBackgroundColor=none;strokeWidth=1;fontFamily=Verdana;fontSize=12;align=center;" parent="1" vertex="1">
          <mxGeometry x="674" y="80" width="120" height="810" as="geometry" />
        </mxCell>
      </root>
    </mxGraphModel>
  </diagram>
  <diagram id="KORe5pIPPj9dKJyad5QP" name="2.vod-app播放">
    <mxGraphModel dx="1434" dy="773" grid="1" gridSize="10" guides="1" tooltips="1" connect="1" arrows="1" fold="1" page="1" pageScale="1" pageWidth="1827" pageHeight="1569" math="0" shadow="0">
      <root>
        <mxCell id="0" />
        <mxCell id="1" parent="0" />
        <mxCell id="kbookoIRNJt9osxkdjnC-57" value="s3模式" style="shape=umlFrame;whiteSpace=wrap;html=1;" parent="1" vertex="1">
          <mxGeometry x="70" y="650" width="950" height="210" as="geometry" />
        </mxCell>
        <mxCell id="kbookoIRNJt9osxkdjnC-1" value="APP" style="shape=umlLifeline;perimeter=lifelinePerimeter;whiteSpace=wrap;html=1;container=1;collapsible=0;recursiveResize=0;outlineConnect=0;" parent="1" vertex="1">
          <mxGeometry x="120" y="70" width="100" height="1090" as="geometry" />
        </mxCell>
        <mxCell id="kbookoIRNJt9osxkdjnC-7" value="1.点击影片详情" style="html=1;verticalAlign=bottom;endArrow=block;labelBackgroundColor=#FFFFFF;curved=1;" parent="kbookoIRNJt9osxkdjnC-1" edge="1">
          <mxGeometry width="80" relative="1" as="geometry">
            <mxPoint x="-50" y="210" as="sourcePoint" />
            <mxPoint x="50" y="210" as="targetPoint" />
          </mxGeometry>
        </mxCell>
        <mxCell id="kbookoIRNJt9osxkdjnC-20" value="" style="html=1;points=[];perimeter=orthogonalPerimeter;" parent="kbookoIRNJt9osxkdjnC-1" vertex="1">
          <mxGeometry x="45" y="347" width="10" height="40" as="geometry" />
        </mxCell>
        <mxCell id="kbookoIRNJt9osxkdjnC-21" value="&lt;span style=&quot;background-color: rgb(255, 255, 0);&quot;&gt;4. 根据metaKey解密敏感信息并展示&lt;/span&gt;" style="edgeStyle=orthogonalEdgeStyle;html=1;align=left;spacingLeft=2;endArrow=block;rounded=0;entryX=1;entryY=0;labelBackgroundColor=#FFFFFF;curved=1;" parent="kbookoIRNJt9osxkdjnC-1" target="kbookoIRNJt9osxkdjnC-20" edge="1">
          <mxGeometry relative="1" as="geometry">
            <mxPoint x="50" y="327" as="sourcePoint" />
            <Array as="points">
              <mxPoint x="80" y="327" />
            </Array>
          </mxGeometry>
        </mxCell>
        <mxCell id="kbookoIRNJt9osxkdjnC-55" value="" style="html=1;points=[];perimeter=orthogonalPerimeter;" parent="kbookoIRNJt9osxkdjnC-1" vertex="1">
          <mxGeometry x="45" y="840" width="10" height="40" as="geometry" />
        </mxCell>
        <mxCell id="kbookoIRNJt9osxkdjnC-56" value="13. 播放" style="edgeStyle=orthogonalEdgeStyle;html=1;align=left;spacingLeft=2;endArrow=block;rounded=0;entryX=1;entryY=0;labelBackgroundColor=#FFFFFF;curved=1;" parent="kbookoIRNJt9osxkdjnC-1" target="kbookoIRNJt9osxkdjnC-55" edge="1">
          <mxGeometry x="0.0667" y="10" relative="1" as="geometry">
            <mxPoint x="50" y="820" as="sourcePoint" />
            <Array as="points">
              <mxPoint x="80" y="820" />
            </Array>
            <mxPoint as="offset" />
          </mxGeometry>
        </mxCell>
        <mxCell id="kbookoIRNJt9osxkdjnC-59" value="14. 上报播放数据" style="html=1;verticalAlign=bottom;endArrow=block;labelBackgroundColor=#FFFFFF;curved=1;" parent="kbookoIRNJt9osxkdjnC-1" target="kbookoIRNJt9osxkdjnC-58" edge="1">
          <mxGeometry width="80" relative="1" as="geometry">
            <mxPoint x="51" y="940" as="sourcePoint" />
            <mxPoint x="131" y="940" as="targetPoint" />
          </mxGeometry>
        </mxCell>
        <mxCell id="kbookoIRNJt9osxkdjnC-2" value="VOD-Meta Server" style="shape=umlLifeline;perimeter=lifelinePerimeter;whiteSpace=wrap;html=1;container=1;collapsible=0;recursiveResize=0;outlineConnect=0;" parent="1" vertex="1">
          <mxGeometry x="350" y="70" width="100" height="1090" as="geometry" />
        </mxCell>
        <mxCell id="kbookoIRNJt9osxkdjnC-15" value="" style="html=1;points=[];perimeter=orthogonalPerimeter;" parent="kbookoIRNJt9osxkdjnC-2" vertex="1">
          <mxGeometry x="45" y="240" width="10" height="50" as="geometry" />
        </mxCell>
        <mxCell id="kbookoIRNJt9osxkdjnC-24" value="" style="html=1;points=[];perimeter=orthogonalPerimeter;" parent="kbookoIRNJt9osxkdjnC-2" vertex="1">
          <mxGeometry x="45" y="470" width="10" height="50" as="geometry" />
        </mxCell>
        <mxCell id="kbookoIRNJt9osxkdjnC-50" value="" style="html=1;points=[];perimeter=orthogonalPerimeter;" parent="kbookoIRNJt9osxkdjnC-2" vertex="1">
          <mxGeometry x="45" y="649" width="10" height="31" as="geometry" />
        </mxCell>
        <mxCell id="kbookoIRNJt9osxkdjnC-3" value="流媒体" style="shape=umlLifeline;perimeter=lifelinePerimeter;whiteSpace=wrap;html=1;container=1;collapsible=0;recursiveResize=0;outlineConnect=0;" parent="1" vertex="1">
          <mxGeometry x="589" y="70" width="105" height="1090" as="geometry" />
        </mxCell>
        <mxCell id="kbookoIRNJt9osxkdjnC-47" value="" style="html=1;points=[];perimeter=orthogonalPerimeter;" parent="kbookoIRNJt9osxkdjnC-3" vertex="1">
          <mxGeometry x="48" y="620" width="10" height="140" as="geometry" />
        </mxCell>
        <mxCell id="kbookoIRNJt9osxkdjnC-54" value="11. 从s3获取播放资源" style="edgeStyle=orthogonalEdgeStyle;html=1;align=left;spacingLeft=2;endArrow=block;rounded=0;entryX=1;entryY=0;labelBackgroundColor=#FFFFFF;curved=1;" parent="kbookoIRNJt9osxkdjnC-3" edge="1">
          <mxGeometry relative="1" as="geometry">
            <mxPoint x="58" y="705" as="sourcePoint" />
            <Array as="points">
              <mxPoint x="88" y="705" />
            </Array>
            <mxPoint x="63" y="725" as="targetPoint" />
          </mxGeometry>
        </mxCell>
        <mxCell id="kbookoIRNJt9osxkdjnC-4" value="前置条件" style="shape=umlFrame;whiteSpace=wrap;html=1;" parent="1" vertex="1">
          <mxGeometry x="70" y="140" width="950" height="90" as="geometry" />
        </mxCell>
        <mxCell id="kbookoIRNJt9osxkdjnC-8" value="终端用户" style="shape=umlActor;verticalLabelPosition=bottom;verticalAlign=top;html=1;" parent="1" vertex="1">
          <mxGeometry x="30" y="250" width="30" height="60" as="geometry" />
        </mxCell>
        <mxCell id="kbookoIRNJt9osxkdjnC-16" value="2. 根据Id获取影片详情" style="html=1;verticalAlign=bottom;endArrow=block;entryX=0;entryY=0;labelBackgroundColor=#FFFFFF;curved=1;" parent="1" source="kbookoIRNJt9osxkdjnC-1" target="kbookoIRNJt9osxkdjnC-15" edge="1">
          <mxGeometry relative="1" as="geometry">
            <mxPoint x="295" y="310" as="sourcePoint" />
          </mxGeometry>
        </mxCell>
        <mxCell id="kbookoIRNJt9osxkdjnC-17" value="3. 返回详情信息" style="html=1;verticalAlign=bottom;endArrow=open;dashed=1;endSize=8;labelBackgroundColor=#FFFFFF;curved=1;" parent="1" edge="1">
          <mxGeometry relative="1" as="geometry">
            <mxPoint x="169.5" y="360" as="targetPoint" />
            <mxPoint x="399.5" y="360" as="sourcePoint" />
          </mxGeometry>
        </mxCell>
        <mxCell id="kbookoIRNJt9osxkdjnC-22" value="5. 点击播放" style="html=1;verticalAlign=bottom;endArrow=block;labelBackgroundColor=#FFFFFF;curved=1;" parent="1" edge="1">
          <mxGeometry width="80" relative="1" as="geometry">
            <mxPoint x="70" y="510" as="sourcePoint" />
            <mxPoint x="170" y="510" as="targetPoint" />
          </mxGeometry>
        </mxCell>
        <mxCell id="kbookoIRNJt9osxkdjnC-23" value="终端用户" style="shape=umlActor;verticalLabelPosition=bottom;verticalAlign=top;html=1;" parent="1" vertex="1">
          <mxGeometry x="30" y="480" width="30" height="60" as="geometry" />
        </mxCell>
        <mxCell id="kbookoIRNJt9osxkdjnC-25" value="6. 获取播放资源" style="html=1;verticalAlign=bottom;endArrow=block;entryX=0;entryY=0;labelBackgroundColor=#FFFFFF;curved=1;" parent="1" source="kbookoIRNJt9osxkdjnC-1" target="kbookoIRNJt9osxkdjnC-24" edge="1">
          <mxGeometry relative="1" as="geometry">
            <mxPoint x="325" y="540" as="sourcePoint" />
          </mxGeometry>
        </mxCell>
        <mxCell id="kbookoIRNJt9osxkdjnC-26" value="7.返回播放资源" style="html=1;verticalAlign=bottom;endArrow=open;dashed=1;endSize=8;exitX=0;exitY=0.95;labelBackgroundColor=#FFFFFF;curved=1;" parent="1" source="kbookoIRNJt9osxkdjnC-24" target="kbookoIRNJt9osxkdjnC-1" edge="1">
          <mxGeometry relative="1" as="geometry">
            <mxPoint x="325" y="616" as="targetPoint" />
          </mxGeometry>
        </mxCell>
        <mxCell id="kbookoIRNJt9osxkdjnC-48" value="8. 请求播放" style="html=1;verticalAlign=bottom;endArrow=block;entryX=0;entryY=0;labelBackgroundColor=#FFFFFF;curved=1;" parent="1" source="kbookoIRNJt9osxkdjnC-1" target="kbookoIRNJt9osxkdjnC-47" edge="1">
          <mxGeometry relative="1" as="geometry">
            <mxPoint x="325" y="690" as="sourcePoint" />
          </mxGeometry>
        </mxCell>
        <mxCell id="kbookoIRNJt9osxkdjnC-49" value="12. 返回stream" style="html=1;verticalAlign=bottom;endArrow=open;dashed=1;endSize=8;exitX=0;exitY=0.95;labelBackgroundColor=#FFFFFF;curved=1;" parent="1" source="kbookoIRNJt9osxkdjnC-47" target="kbookoIRNJt9osxkdjnC-1" edge="1">
          <mxGeometry relative="1" as="geometry">
            <mxPoint x="325" y="766" as="targetPoint" />
          </mxGeometry>
        </mxCell>
        <mxCell id="kbookoIRNJt9osxkdjnC-51" value="9. 获取资源地址等信息" style="html=1;verticalAlign=bottom;endArrow=block;entryX=1;entryY=0;labelBackgroundColor=#FFFFFF;curved=1;" parent="1" edge="1">
          <mxGeometry relative="1" as="geometry">
            <mxPoint x="631" y="719" as="sourcePoint" />
            <mxPoint x="406" y="719" as="targetPoint" />
          </mxGeometry>
        </mxCell>
        <mxCell id="kbookoIRNJt9osxkdjnC-52" value="10. 返回资源信息" style="html=1;verticalAlign=bottom;endArrow=open;dashed=1;endSize=8;exitX=1;exitY=0.95;labelBackgroundColor=#FFFFFF;curved=1;entryX=0;entryY=0.414;entryDx=0;entryDy=0;entryPerimeter=0;" parent="1" source="kbookoIRNJt9osxkdjnC-50" target="kbookoIRNJt9osxkdjnC-47" edge="1">
          <mxGeometry x="0.0044" relative="1" as="geometry">
            <mxPoint x="630" y="748" as="targetPoint" />
            <mxPoint as="offset" />
          </mxGeometry>
        </mxCell>
        <mxCell id="kbookoIRNJt9osxkdjnC-58" value="大数据" style="shape=umlLifeline;perimeter=lifelinePerimeter;whiteSpace=wrap;html=1;container=1;collapsible=0;recursiveResize=0;outlineConnect=0;" parent="1" vertex="1">
          <mxGeometry x="890" y="70" width="100" height="1090" as="geometry" />
        </mxCell>
      </root>
    </mxGraphModel>
  </diagram>
  <diagram id="gjWF6V5qPFigrquj97nw" name="3. enduser top N 数据">
    <mxGraphModel dx="1434" dy="773" grid="1" gridSize="10" guides="1" tooltips="1" connect="1" arrows="1" fold="1" page="1" pageScale="1" pageWidth="1827" pageHeight="1569" math="0" shadow="0">
      <root>
        <mxCell id="0" />
        <mxCell id="1" parent="0" />
        <mxCell id="eoCXFDoKKmJVifIwsHfB-1" value="APP" style="shape=umlLifeline;perimeter=lifelinePerimeter;whiteSpace=wrap;html=1;container=1;collapsible=0;recursiveResize=0;outlineConnect=0;" parent="1" vertex="1">
          <mxGeometry x="200" y="80" width="100" height="1040" as="geometry" />
        </mxCell>
        <mxCell id="eoCXFDoKKmJVifIwsHfB-9" value="1.上报数据（包括敏感数据）" style="html=1;verticalAlign=bottom;endArrow=block;labelBackgroundColor=#FFFF00;curved=1;" parent="eoCXFDoKKmJVifIwsHfB-1" target="eoCXFDoKKmJVifIwsHfB-3" edge="1">
          <mxGeometry width="80" relative="1" as="geometry">
            <mxPoint x="50" y="320" as="sourcePoint" />
            <mxPoint x="130" y="320" as="targetPoint" />
          </mxGeometry>
        </mxCell>
        <mxCell id="eoCXFDoKKmJVifIwsHfB-37" value="" style="html=1;points=[];perimeter=orthogonalPerimeter;" parent="eoCXFDoKKmJVifIwsHfB-1" vertex="1">
          <mxGeometry x="44" y="931" width="10" height="40" as="geometry" />
        </mxCell>
        <mxCell id="eoCXFDoKKmJVifIwsHfB-38" value="11. 根据metaKey解密出敏感数据，并展示" style="edgeStyle=orthogonalEdgeStyle;html=1;align=left;spacingLeft=2;endArrow=block;rounded=0;entryX=1;entryY=0;labelBackgroundColor=#FFFFFF;curved=1;" parent="eoCXFDoKKmJVifIwsHfB-1" target="eoCXFDoKKmJVifIwsHfB-37" edge="1">
          <mxGeometry relative="1" as="geometry">
            <mxPoint x="49" y="911" as="sourcePoint" />
            <Array as="points">
              <mxPoint x="79" y="911" />
            </Array>
          </mxGeometry>
        </mxCell>
        <mxCell id="eoCXFDoKKmJVifIwsHfB-2" value="EndUser" style="shape=umlLifeline;perimeter=lifelinePerimeter;whiteSpace=wrap;html=1;container=1;collapsible=0;recursiveResize=0;outlineConnect=0;" parent="1" vertex="1">
          <mxGeometry x="400" y="80" width="100" height="1040" as="geometry" />
        </mxCell>
        <mxCell id="eoCXFDoKKmJVifIwsHfB-10" value="&lt;span style=&quot;background-color: rgb(255, 255, 255);&quot;&gt;1.上报数据&lt;/span&gt;" style="html=1;verticalAlign=bottom;endArrow=block;labelBackgroundColor=#FFFF00;curved=1;" parent="eoCXFDoKKmJVifIwsHfB-2" target="eoCXFDoKKmJVifIwsHfB-3" edge="1">
          <mxGeometry width="80" relative="1" as="geometry">
            <mxPoint x="50" y="360" as="sourcePoint" />
            <mxPoint x="130" y="360" as="targetPoint" />
          </mxGeometry>
        </mxCell>
        <mxCell id="eoCXFDoKKmJVifIwsHfB-34" value="" style="html=1;points=[];perimeter=orthogonalPerimeter;" parent="eoCXFDoKKmJVifIwsHfB-2" vertex="1">
          <mxGeometry x="45" y="830" width="10" height="50" as="geometry" />
        </mxCell>
        <mxCell id="eoCXFDoKKmJVifIwsHfB-3" value="大数据" style="shape=umlLifeline;perimeter=lifelinePerimeter;whiteSpace=wrap;html=1;container=1;collapsible=0;recursiveResize=0;outlineConnect=0;" parent="1" vertex="1">
          <mxGeometry x="600" y="80" width="100" height="1040" as="geometry" />
        </mxCell>
        <mxCell id="eoCXFDoKKmJVifIwsHfB-12" value="" style="html=1;points=[];perimeter=orthogonalPerimeter;" parent="eoCXFDoKKmJVifIwsHfB-3" vertex="1">
          <mxGeometry x="45" y="419" width="10" height="40" as="geometry" />
        </mxCell>
        <mxCell id="eoCXFDoKKmJVifIwsHfB-13" value="2. 分析数据" style="edgeStyle=orthogonalEdgeStyle;html=1;align=left;spacingLeft=2;endArrow=block;rounded=0;entryX=1;entryY=0;labelBackgroundColor=#FFFFFF;curved=1;" parent="eoCXFDoKKmJVifIwsHfB-3" target="eoCXFDoKKmJVifIwsHfB-12" edge="1">
          <mxGeometry relative="1" as="geometry">
            <mxPoint x="50" y="399" as="sourcePoint" />
            <Array as="points">
              <mxPoint x="80" y="399" />
            </Array>
          </mxGeometry>
        </mxCell>
        <mxCell id="eoCXFDoKKmJVifIwsHfB-14" value="3. 定时上传" style="html=1;verticalAlign=bottom;endArrow=block;labelBackgroundColor=#FFFFFF;curved=1;" parent="eoCXFDoKKmJVifIwsHfB-3" target="eoCXFDoKKmJVifIwsHfB-11" edge="1">
          <mxGeometry width="80" relative="1" as="geometry">
            <mxPoint x="50" y="500" as="sourcePoint" />
            <mxPoint x="130" y="500" as="targetPoint" />
          </mxGeometry>
        </mxCell>
        <mxCell id="eoCXFDoKKmJVifIwsHfB-5" value="Portal后端" style="shape=umlLifeline;perimeter=lifelinePerimeter;whiteSpace=wrap;html=1;container=1;collapsible=0;recursiveResize=0;outlineConnect=0;" parent="1" vertex="1">
          <mxGeometry x="1000" y="80" width="100" height="1040" as="geometry" />
        </mxCell>
        <mxCell id="eoCXFDoKKmJVifIwsHfB-22" value="" style="html=1;points=[];perimeter=orthogonalPerimeter;" parent="eoCXFDoKKmJVifIwsHfB-5" vertex="1">
          <mxGeometry x="45" y="745" width="10" height="45" as="geometry" />
        </mxCell>
        <mxCell id="eoCXFDoKKmJVifIwsHfB-25" value="" style="html=1;points=[];perimeter=orthogonalPerimeter;" parent="eoCXFDoKKmJVifIwsHfB-5" vertex="1">
          <mxGeometry x="45" y="661" width="10" height="40" as="geometry" />
        </mxCell>
        <mxCell id="eoCXFDoKKmJVifIwsHfB-26" value="6. 将topN数据写入数据库" style="edgeStyle=orthogonalEdgeStyle;html=1;align=left;spacingLeft=2;endArrow=block;rounded=0;entryX=1;entryY=0;labelBackgroundColor=#FFFFFF;curved=1;" parent="eoCXFDoKKmJVifIwsHfB-5" target="eoCXFDoKKmJVifIwsHfB-25" edge="1">
          <mxGeometry relative="1" as="geometry">
            <mxPoint x="50" y="641" as="sourcePoint" />
            <Array as="points">
              <mxPoint x="80" y="641" />
            </Array>
          </mxGeometry>
        </mxCell>
        <mxCell id="eoCXFDoKKmJVifIwsHfB-8" value="前置条件" style="shape=umlFrame;whiteSpace=wrap;html=1;" parent="1" vertex="1">
          <mxGeometry x="160" y="160" width="1240" height="200" as="geometry" />
        </mxCell>
        <mxCell id="eoCXFDoKKmJVifIwsHfB-11" value="FTP" style="shape=umlLifeline;perimeter=lifelinePerimeter;whiteSpace=wrap;html=1;container=1;collapsible=0;recursiveResize=0;outlineConnect=0;" parent="1" vertex="1">
          <mxGeometry x="800" y="80" width="100" height="1040" as="geometry" />
        </mxCell>
        <mxCell id="eoCXFDoKKmJVifIwsHfB-19" value="" style="html=1;points=[];perimeter=orthogonalPerimeter;" parent="eoCXFDoKKmJVifIwsHfB-11" vertex="1">
          <mxGeometry x="44" y="560" width="10" height="60" as="geometry" />
        </mxCell>
        <mxCell id="eoCXFDoKKmJVifIwsHfB-20" value="4. 定时拉取topN数据" style="html=1;verticalAlign=bottom;endArrow=block;entryX=1;entryY=0;labelBackgroundColor=#FFFFFF;curved=1;" parent="1" source="eoCXFDoKKmJVifIwsHfB-5" target="eoCXFDoKKmJVifIwsHfB-19" edge="1">
          <mxGeometry relative="1" as="geometry">
            <mxPoint x="910" y="640" as="sourcePoint" />
          </mxGeometry>
        </mxCell>
        <mxCell id="eoCXFDoKKmJVifIwsHfB-21" value="5. 返回topN数据" style="html=1;verticalAlign=bottom;endArrow=open;dashed=1;endSize=8;exitX=1;exitY=0.95;labelBackgroundColor=#FFFFFF;curved=1;" parent="1" source="eoCXFDoKKmJVifIwsHfB-19" target="eoCXFDoKKmJVifIwsHfB-5" edge="1">
          <mxGeometry relative="1" as="geometry">
            <mxPoint x="910" y="697" as="targetPoint" />
          </mxGeometry>
        </mxCell>
        <mxCell id="eoCXFDoKKmJVifIwsHfB-23" value="7.定时拉取topN数据" style="html=1;verticalAlign=bottom;endArrow=block;entryX=0;entryY=0;labelBackgroundColor=#FFFFFF;curved=1;" parent="1" target="eoCXFDoKKmJVifIwsHfB-22" edge="1">
          <mxGeometry x="0.0092" relative="1" as="geometry">
            <mxPoint x="449.5" y="825" as="sourcePoint" />
            <mxPoint x="1" as="offset" />
          </mxGeometry>
        </mxCell>
        <mxCell id="eoCXFDoKKmJVifIwsHfB-24" value="8.返回topN数据" style="html=1;verticalAlign=bottom;endArrow=open;dashed=1;endSize=8;exitX=0;exitY=0.95;labelBackgroundColor=#FFFFFF;curved=1;" parent="1" edge="1">
          <mxGeometry x="-0.0092" relative="1" as="geometry">
            <mxPoint x="449.5" y="869.75" as="targetPoint" />
            <mxPoint x="1045" y="869.75" as="sourcePoint" />
            <mxPoint as="offset" />
          </mxGeometry>
        </mxCell>
        <mxCell id="eoCXFDoKKmJVifIwsHfB-36" value="10.返回带敏感信息的top数据" style="html=1;verticalAlign=bottom;endArrow=open;dashed=1;endSize=8;exitX=0;exitY=0.95;labelBackgroundColor=#FFFFFF;curved=1;" parent="1" source="eoCXFDoKKmJVifIwsHfB-34" target="eoCXFDoKKmJVifIwsHfB-1" edge="1">
          <mxGeometry relative="1" as="geometry">
            <mxPoint x="375" y="986" as="targetPoint" />
          </mxGeometry>
        </mxCell>
        <mxCell id="eoCXFDoKKmJVifIwsHfB-35" value="9.获取topN数据" style="html=1;verticalAlign=bottom;endArrow=block;entryX=0;entryY=0;labelBackgroundColor=#FFFFFF;curved=1;" parent="1" source="eoCXFDoKKmJVifIwsHfB-1" target="eoCXFDoKKmJVifIwsHfB-34" edge="1">
          <mxGeometry relative="1" as="geometry">
            <mxPoint x="375" y="910" as="sourcePoint" />
          </mxGeometry>
        </mxCell>
      </root>
    </mxGraphModel>
  </diagram>
  <diagram name="4. crm dashboard" id="LhAWnNlSXdASxboQdcK3">
    <mxGraphModel dx="1434" dy="773" grid="1" gridSize="10" guides="1" tooltips="1" connect="1" arrows="1" fold="1" page="1" pageScale="1" pageWidth="1827" pageHeight="1569" math="0" shadow="0">
      <root>
        <mxCell id="1HJaYaZaN73zxG1nSYCi-0" />
        <mxCell id="1HJaYaZaN73zxG1nSYCi-1" parent="1HJaYaZaN73zxG1nSYCi-0" />
        <mxCell id="1HJaYaZaN73zxG1nSYCi-2" value="APP" style="shape=umlLifeline;perimeter=lifelinePerimeter;whiteSpace=wrap;html=1;container=1;collapsible=0;recursiveResize=0;outlineConnect=0;" parent="1HJaYaZaN73zxG1nSYCi-1" vertex="1">
          <mxGeometry x="200" y="80" width="100" height="1040" as="geometry" />
        </mxCell>
        <mxCell id="1HJaYaZaN73zxG1nSYCi-3" value="1.上报数据（包括敏感数据）" style="html=1;verticalAlign=bottom;endArrow=block;labelBackgroundColor=#FFFF00;curved=1;" parent="1HJaYaZaN73zxG1nSYCi-2" target="1HJaYaZaN73zxG1nSYCi-9" edge="1">
          <mxGeometry width="80" relative="1" as="geometry">
            <mxPoint x="50" y="320" as="sourcePoint" />
            <mxPoint x="130" y="320" as="targetPoint" />
          </mxGeometry>
        </mxCell>
        <mxCell id="1HJaYaZaN73zxG1nSYCi-6" value="EndUser" style="shape=umlLifeline;perimeter=lifelinePerimeter;whiteSpace=wrap;html=1;container=1;collapsible=0;recursiveResize=0;outlineConnect=0;" parent="1HJaYaZaN73zxG1nSYCi-1" vertex="1">
          <mxGeometry x="400" y="80" width="100" height="1040" as="geometry" />
        </mxCell>
        <mxCell id="1HJaYaZaN73zxG1nSYCi-7" value="&lt;span style=&quot;background-color: rgb(255, 255, 255);&quot;&gt;1.上报数据&lt;/span&gt;" style="html=1;verticalAlign=bottom;endArrow=block;labelBackgroundColor=#FFFF00;curved=1;" parent="1HJaYaZaN73zxG1nSYCi-6" target="1HJaYaZaN73zxG1nSYCi-9" edge="1">
          <mxGeometry width="80" relative="1" as="geometry">
            <mxPoint x="50" y="360" as="sourcePoint" />
            <mxPoint x="130" y="360" as="targetPoint" />
          </mxGeometry>
        </mxCell>
        <mxCell id="1HJaYaZaN73zxG1nSYCi-9" value="大数据" style="shape=umlLifeline;perimeter=lifelinePerimeter;whiteSpace=wrap;html=1;container=1;collapsible=0;recursiveResize=0;outlineConnect=0;" parent="1HJaYaZaN73zxG1nSYCi-1" vertex="1">
          <mxGeometry x="600" y="80" width="100" height="1040" as="geometry" />
        </mxCell>
        <mxCell id="1HJaYaZaN73zxG1nSYCi-10" value="" style="html=1;points=[];perimeter=orthogonalPerimeter;" parent="1HJaYaZaN73zxG1nSYCi-9" vertex="1">
          <mxGeometry x="45" y="419" width="10" height="40" as="geometry" />
        </mxCell>
        <mxCell id="1HJaYaZaN73zxG1nSYCi-11" value="2. 分析数据" style="edgeStyle=orthogonalEdgeStyle;html=1;align=left;spacingLeft=2;endArrow=block;rounded=0;entryX=1;entryY=0;labelBackgroundColor=#FFFFFF;curved=1;" parent="1HJaYaZaN73zxG1nSYCi-9" target="1HJaYaZaN73zxG1nSYCi-10" edge="1">
          <mxGeometry relative="1" as="geometry">
            <mxPoint x="50" y="399" as="sourcePoint" />
            <Array as="points">
              <mxPoint x="80" y="399" />
            </Array>
          </mxGeometry>
        </mxCell>
        <mxCell id="1HJaYaZaN73zxG1nSYCi-12" value="3. 定时上传" style="html=1;verticalAlign=bottom;endArrow=block;labelBackgroundColor=#FFFFFF;curved=1;" parent="1HJaYaZaN73zxG1nSYCi-9" target="1HJaYaZaN73zxG1nSYCi-18" edge="1">
          <mxGeometry width="80" relative="1" as="geometry">
            <mxPoint x="50" y="500" as="sourcePoint" />
            <mxPoint x="130" y="500" as="targetPoint" />
          </mxGeometry>
        </mxCell>
        <mxCell id="1HJaYaZaN73zxG1nSYCi-13" value="crm后端" style="shape=umlLifeline;perimeter=lifelinePerimeter;whiteSpace=wrap;html=1;container=1;collapsible=0;recursiveResize=0;outlineConnect=0;" parent="1HJaYaZaN73zxG1nSYCi-1" vertex="1">
          <mxGeometry x="1000" y="80" width="100" height="1040" as="geometry" />
        </mxCell>
        <mxCell id="1HJaYaZaN73zxG1nSYCi-15" value="" style="html=1;points=[];perimeter=orthogonalPerimeter;" parent="1HJaYaZaN73zxG1nSYCi-13" vertex="1">
          <mxGeometry x="45" y="661" width="10" height="40" as="geometry" />
        </mxCell>
        <mxCell id="1HJaYaZaN73zxG1nSYCi-16" value="6. 将数据写入数据库" style="edgeStyle=orthogonalEdgeStyle;html=1;align=left;spacingLeft=2;endArrow=block;rounded=0;entryX=1;entryY=0;labelBackgroundColor=#FFFFFF;curved=1;" parent="1HJaYaZaN73zxG1nSYCi-13" target="1HJaYaZaN73zxG1nSYCi-15" edge="1">
          <mxGeometry relative="1" as="geometry">
            <mxPoint x="50" y="641" as="sourcePoint" />
            <Array as="points">
              <mxPoint x="80" y="641" />
            </Array>
          </mxGeometry>
        </mxCell>
        <mxCell id="esMTdwoBUDNPGx_WvczT-7" value="" style="html=1;points=[];perimeter=orthogonalPerimeter;" parent="1HJaYaZaN73zxG1nSYCi-13" vertex="1">
          <mxGeometry x="45" y="740" width="10" height="60" as="geometry" />
        </mxCell>
        <mxCell id="1HJaYaZaN73zxG1nSYCi-17" value="前置条件" style="shape=umlFrame;whiteSpace=wrap;html=1;" parent="1HJaYaZaN73zxG1nSYCi-1" vertex="1">
          <mxGeometry x="160" y="160" width="1240" height="200" as="geometry" />
        </mxCell>
        <mxCell id="1HJaYaZaN73zxG1nSYCi-18" value="FTP" style="shape=umlLifeline;perimeter=lifelinePerimeter;whiteSpace=wrap;html=1;container=1;collapsible=0;recursiveResize=0;outlineConnect=0;" parent="1HJaYaZaN73zxG1nSYCi-1" vertex="1">
          <mxGeometry x="800" y="80" width="100" height="1040" as="geometry" />
        </mxCell>
        <mxCell id="1HJaYaZaN73zxG1nSYCi-19" value="" style="html=1;points=[];perimeter=orthogonalPerimeter;" parent="1HJaYaZaN73zxG1nSYCi-18" vertex="1">
          <mxGeometry x="44" y="560" width="10" height="60" as="geometry" />
        </mxCell>
        <mxCell id="1HJaYaZaN73zxG1nSYCi-20" value="4. 定时拉取统计数据" style="html=1;verticalAlign=bottom;endArrow=block;entryX=1;entryY=0;labelBackgroundColor=#FFFFFF;curved=1;" parent="1HJaYaZaN73zxG1nSYCi-1" source="1HJaYaZaN73zxG1nSYCi-13" target="1HJaYaZaN73zxG1nSYCi-19" edge="1">
          <mxGeometry relative="1" as="geometry">
            <mxPoint x="910" y="640" as="sourcePoint" />
          </mxGeometry>
        </mxCell>
        <mxCell id="1HJaYaZaN73zxG1nSYCi-21" value="5. 返回统计数据" style="html=1;verticalAlign=bottom;endArrow=open;dashed=1;endSize=8;exitX=1;exitY=0.95;labelBackgroundColor=#FFFFFF;curved=1;" parent="1HJaYaZaN73zxG1nSYCi-1" source="1HJaYaZaN73zxG1nSYCi-19" target="1HJaYaZaN73zxG1nSYCi-13" edge="1">
          <mxGeometry relative="1" as="geometry">
            <mxPoint x="910" y="697" as="targetPoint" />
          </mxGeometry>
        </mxCell>
        <mxCell id="esMTdwoBUDNPGx_WvczT-0" value="crm前端" style="shape=umlLifeline;perimeter=lifelinePerimeter;whiteSpace=wrap;html=1;container=1;collapsible=0;recursiveResize=0;outlineConnect=0;" parent="1HJaYaZaN73zxG1nSYCi-1" vertex="1">
          <mxGeometry x="1200" y="80" width="100" height="1040" as="geometry" />
        </mxCell>
        <mxCell id="esMTdwoBUDNPGx_WvczT-17" value="" style="html=1;points=[];perimeter=orthogonalPerimeter;" parent="esMTdwoBUDNPGx_WvczT-0" vertex="1">
          <mxGeometry x="45" y="857" width="10" height="40" as="geometry" />
        </mxCell>
        <mxCell id="esMTdwoBUDNPGx_WvczT-18" value="&lt;span style=&quot;background-color: rgb(255, 255, 0);&quot;&gt;10.使用metaKey解密敏感信息并展示&lt;/span&gt;" style="edgeStyle=orthogonalEdgeStyle;html=1;align=left;spacingLeft=2;endArrow=block;rounded=0;entryX=1;entryY=0;labelBackgroundColor=#FFFFFF;curved=1;" parent="esMTdwoBUDNPGx_WvczT-0" target="esMTdwoBUDNPGx_WvczT-17" edge="1">
          <mxGeometry relative="1" as="geometry">
            <mxPoint x="50" y="837" as="sourcePoint" />
            <Array as="points">
              <mxPoint x="80" y="837" />
            </Array>
          </mxGeometry>
        </mxCell>
        <mxCell id="esMTdwoBUDNPGx_WvczT-8" value="8.获取统计数据" style="html=1;verticalAlign=bottom;endArrow=block;entryX=1;entryY=0;labelBackgroundColor=#FFFFFF;curved=1;" parent="1HJaYaZaN73zxG1nSYCi-1" source="esMTdwoBUDNPGx_WvczT-0" target="esMTdwoBUDNPGx_WvczT-7" edge="1">
          <mxGeometry relative="1" as="geometry">
            <mxPoint x="1115" y="820" as="sourcePoint" />
          </mxGeometry>
        </mxCell>
        <mxCell id="esMTdwoBUDNPGx_WvczT-9" value="9.返回统计数据（带有敏感数据）" style="html=1;verticalAlign=bottom;endArrow=open;dashed=1;endSize=8;exitX=1;exitY=0.95;labelBackgroundColor=#FFFFFF;curved=1;" parent="1HJaYaZaN73zxG1nSYCi-1" source="esMTdwoBUDNPGx_WvczT-7" target="esMTdwoBUDNPGx_WvczT-0" edge="1">
          <mxGeometry relative="1" as="geometry">
            <mxPoint x="1115" y="877" as="targetPoint" />
          </mxGeometry>
        </mxCell>
        <mxCell id="esMTdwoBUDNPGx_WvczT-11" value="VNO&amp;amp;Brand" style="shape=umlActor;verticalLabelPosition=bottom;verticalAlign=top;html=1;" parent="1HJaYaZaN73zxG1nSYCi-1" vertex="1">
          <mxGeometry x="1400" y="760" width="30" height="60" as="geometry" />
        </mxCell>
        <mxCell id="esMTdwoBUDNPGx_WvczT-12" value="7.VNO访问dashboard" style="html=1;verticalAlign=bottom;endArrow=block;labelBackgroundColor=#FFFFFF;curved=1;" parent="1HJaYaZaN73zxG1nSYCi-1" edge="1">
          <mxGeometry width="80" relative="1" as="geometry">
            <mxPoint x="1390" y="790" as="sourcePoint" />
            <mxPoint x="1250" y="789.5" as="targetPoint" />
          </mxGeometry>
        </mxCell>
      </root>
    </mxGraphModel>
  </diagram>
  <diagram id="ryYD8jvvKDXrMiVo98uk" name="laucher">
    <mxGraphModel dx="1434" dy="773" grid="1" gridSize="10" guides="1" tooltips="1" connect="1" arrows="1" fold="1" page="1" pageScale="1" pageWidth="1827" pageHeight="1569" math="0" shadow="0">
      <root>
        <mxCell id="0" />
        <mxCell id="1" parent="0" />
        <mxCell id="k1BOMunkP89K-0ppS4L3-1" value="Pool" style="swimlane;childLayout=stackLayout;resizeParent=1;resizeParentMax=0;startSize=20;html=1;" parent="1" vertex="1">
          <mxGeometry x="360" y="60" width="600" height="650" as="geometry" />
        </mxCell>
        <mxCell id="k1BOMunkP89K-0ppS4L3-2" value="brand" style="swimlane;startSize=20;html=1;" parent="k1BOMunkP89K-0ppS4L3-1" vertex="1">
          <mxGeometry y="20" width="200" height="630" as="geometry">
            <mxRectangle y="20" width="40" height="630" as="alternateBounds" />
          </mxGeometry>
        </mxCell>
        <mxCell id="k1BOMunkP89K-0ppS4L3-9" value="1.点击 launcher list 菜单" style="rounded=0;whiteSpace=wrap;html=1;" parent="k1BOMunkP89K-0ppS4L3-2" vertex="1">
          <mxGeometry x="50" y="60" width="100" height="40" as="geometry" />
        </mxCell>
        <mxCell id="k1BOMunkP89K-0ppS4L3-19" value="结束" style="ellipse;whiteSpace=wrap;html=1;" parent="k1BOMunkP89K-0ppS4L3-2" vertex="1">
          <mxGeometry x="50" y="130" width="100" height="40" as="geometry" />
        </mxCell>
        <mxCell id="k1BOMunkP89K-0ppS4L3-22" value="2.点击new按钮 新建launcher" style="rounded=0;whiteSpace=wrap;html=1;" parent="k1BOMunkP89K-0ppS4L3-2" vertex="1">
          <mxGeometry x="50" y="230" width="100" height="40" as="geometry" />
        </mxCell>
        <mxCell id="k1BOMunkP89K-0ppS4L3-25" value="录入name version， 图片等信息" style="rounded=0;whiteSpace=wrap;html=1;" parent="k1BOMunkP89K-0ppS4L3-2" vertex="1">
          <mxGeometry x="50" y="310" width="100" height="40" as="geometry" />
        </mxCell>
        <mxCell id="k1BOMunkP89K-0ppS4L3-33" value="录入home app并提交" style="rounded=0;whiteSpace=wrap;html=1;" parent="k1BOMunkP89K-0ppS4L3-2" vertex="1">
          <mxGeometry x="50" y="380" width="100" height="40" as="geometry" />
        </mxCell>
        <mxCell id="k1BOMunkP89K-0ppS4L3-5" value="launcher server前端" style="swimlane;startSize=20;html=1;" parent="k1BOMunkP89K-0ppS4L3-1" vertex="1">
          <mxGeometry x="200" y="20" width="200" height="630" as="geometry" />
        </mxCell>
        <mxCell id="k1BOMunkP89K-0ppS4L3-10" value="请求launcher list信息" style="rounded=0;whiteSpace=wrap;html=1;" parent="k1BOMunkP89K-0ppS4L3-5" vertex="1">
          <mxGeometry x="50" y="60" width="100" height="40" as="geometry" />
        </mxCell>
        <mxCell id="k1BOMunkP89K-0ppS4L3-17" value="展示launcher list列表信息页" style="rounded=0;whiteSpace=wrap;html=1;" parent="k1BOMunkP89K-0ppS4L3-5" vertex="1">
          <mxGeometry x="50" y="130" width="100" height="40" as="geometry" />
        </mxCell>
        <mxCell id="k1BOMunkP89K-0ppS4L3-23" value="展示baseinfo录入页" style="rounded=0;whiteSpace=wrap;html=1;" parent="k1BOMunkP89K-0ppS4L3-5" vertex="1">
          <mxGeometry x="50" y="230" width="100" height="40" as="geometry" />
        </mxCell>
        <mxCell id="k1BOMunkP89K-0ppS4L3-26" value="请求新建launcher-step1接口" style="rounded=0;whiteSpace=wrap;html=1;" parent="k1BOMunkP89K-0ppS4L3-5" vertex="1">
          <mxGeometry x="50" y="310" width="100" height="40" as="geometry" />
        </mxCell>
        <mxCell id="k1BOMunkP89K-0ppS4L3-32" value="展示home app页面" style="rounded=0;whiteSpace=wrap;html=1;" parent="k1BOMunkP89K-0ppS4L3-5" vertex="1">
          <mxGeometry x="50" y="380" width="100" height="40" as="geometry" />
        </mxCell>
        <mxCell id="k1BOMunkP89K-0ppS4L3-36" value="请求新建launcher-step2接口" style="rounded=0;whiteSpace=wrap;html=1;" parent="k1BOMunkP89K-0ppS4L3-5" vertex="1">
          <mxGeometry x="50" y="450" width="100" height="40" as="geometry" />
        </mxCell>
        <mxCell id="k1BOMunkP89K-0ppS4L3-6" value="launcher server 后端" style="swimlane;startSize=20;html=1;" parent="k1BOMunkP89K-0ppS4L3-1" vertex="1">
          <mxGeometry x="400" y="20" width="200" height="630" as="geometry" />
        </mxCell>
        <mxCell id="k1BOMunkP89K-0ppS4L3-14" value="获取launcher list信息并返回结果" style="rounded=0;whiteSpace=wrap;html=1;" parent="k1BOMunkP89K-0ppS4L3-6" vertex="1">
          <mxGeometry x="50" y="96" width="100" height="40" as="geometry" />
        </mxCell>
        <mxCell id="k1BOMunkP89K-0ppS4L3-30" value="新建launcher信息并返回launcherId，launcherApkId" style="rounded=0;whiteSpace=wrap;html=1;" parent="k1BOMunkP89K-0ppS4L3-6" vertex="1">
          <mxGeometry x="35" y="310" width="130" height="40" as="geometry" />
        </mxCell>
        <mxCell id="k1BOMunkP89K-0ppS4L3-13" style="edgeStyle=orthogonalEdgeStyle;rounded=0;orthogonalLoop=1;jettySize=auto;html=1;exitX=1;exitY=0.5;exitDx=0;exitDy=0;entryX=0;entryY=0.5;entryDx=0;entryDy=0;" parent="k1BOMunkP89K-0ppS4L3-1" source="k1BOMunkP89K-0ppS4L3-9" target="k1BOMunkP89K-0ppS4L3-10" edge="1">
          <mxGeometry relative="1" as="geometry" />
        </mxCell>
        <mxCell id="k1BOMunkP89K-0ppS4L3-18" style="edgeStyle=orthogonalEdgeStyle;rounded=0;orthogonalLoop=1;jettySize=auto;html=1;entryX=1;entryY=0.5;entryDx=0;entryDy=0;" parent="k1BOMunkP89K-0ppS4L3-1" source="k1BOMunkP89K-0ppS4L3-14" target="k1BOMunkP89K-0ppS4L3-17" edge="1">
          <mxGeometry relative="1" as="geometry">
            <Array as="points">
              <mxPoint x="504" y="170" />
            </Array>
          </mxGeometry>
        </mxCell>
        <mxCell id="k1BOMunkP89K-0ppS4L3-20" style="edgeStyle=orthogonalEdgeStyle;rounded=0;orthogonalLoop=1;jettySize=auto;html=1;exitX=0;exitY=0.5;exitDx=0;exitDy=0;entryX=1;entryY=0.5;entryDx=0;entryDy=0;" parent="k1BOMunkP89K-0ppS4L3-1" source="k1BOMunkP89K-0ppS4L3-17" target="k1BOMunkP89K-0ppS4L3-19" edge="1">
          <mxGeometry relative="1" as="geometry" />
        </mxCell>
        <mxCell id="k1BOMunkP89K-0ppS4L3-21" style="edgeStyle=orthogonalEdgeStyle;rounded=0;orthogonalLoop=1;jettySize=auto;html=1;entryX=0.5;entryY=0;entryDx=0;entryDy=0;" parent="k1BOMunkP89K-0ppS4L3-1" source="k1BOMunkP89K-0ppS4L3-10" target="k1BOMunkP89K-0ppS4L3-14" edge="1">
          <mxGeometry relative="1" as="geometry">
            <Array as="points">
              <mxPoint x="500" y="100" />
            </Array>
          </mxGeometry>
        </mxCell>
        <mxCell id="k1BOMunkP89K-0ppS4L3-24" style="edgeStyle=orthogonalEdgeStyle;rounded=0;orthogonalLoop=1;jettySize=auto;html=1;exitX=1;exitY=0.5;exitDx=0;exitDy=0;" parent="k1BOMunkP89K-0ppS4L3-1" source="k1BOMunkP89K-0ppS4L3-22" target="k1BOMunkP89K-0ppS4L3-23" edge="1">
          <mxGeometry relative="1" as="geometry" />
        </mxCell>
        <mxCell id="k1BOMunkP89K-0ppS4L3-27" style="edgeStyle=orthogonalEdgeStyle;rounded=0;orthogonalLoop=1;jettySize=auto;html=1;exitX=1;exitY=0.5;exitDx=0;exitDy=0;entryX=0;entryY=0.5;entryDx=0;entryDy=0;" parent="k1BOMunkP89K-0ppS4L3-1" source="k1BOMunkP89K-0ppS4L3-25" target="k1BOMunkP89K-0ppS4L3-26" edge="1">
          <mxGeometry relative="1" as="geometry" />
        </mxCell>
        <mxCell id="k1BOMunkP89K-0ppS4L3-29" style="edgeStyle=orthogonalEdgeStyle;rounded=0;orthogonalLoop=1;jettySize=auto;html=1;entryX=0.5;entryY=0;entryDx=0;entryDy=0;" parent="k1BOMunkP89K-0ppS4L3-1" source="k1BOMunkP89K-0ppS4L3-23" target="k1BOMunkP89K-0ppS4L3-25" edge="1">
          <mxGeometry relative="1" as="geometry">
            <Array as="points">
              <mxPoint x="300" y="310" />
              <mxPoint x="100" y="310" />
            </Array>
          </mxGeometry>
        </mxCell>
        <mxCell id="k1BOMunkP89K-0ppS4L3-31" style="edgeStyle=orthogonalEdgeStyle;rounded=0;orthogonalLoop=1;jettySize=auto;html=1;exitX=1;exitY=0.5;exitDx=0;exitDy=0;entryX=0;entryY=0.5;entryDx=0;entryDy=0;" parent="k1BOMunkP89K-0ppS4L3-1" source="k1BOMunkP89K-0ppS4L3-26" target="k1BOMunkP89K-0ppS4L3-30" edge="1">
          <mxGeometry relative="1" as="geometry" />
        </mxCell>
        <mxCell id="k1BOMunkP89K-0ppS4L3-34" style="edgeStyle=orthogonalEdgeStyle;rounded=0;orthogonalLoop=1;jettySize=auto;html=1;entryX=1;entryY=0.5;entryDx=0;entryDy=0;" parent="k1BOMunkP89K-0ppS4L3-1" source="k1BOMunkP89K-0ppS4L3-30" target="k1BOMunkP89K-0ppS4L3-32" edge="1">
          <mxGeometry relative="1" as="geometry">
            <Array as="points">
              <mxPoint x="500" y="420" />
            </Array>
          </mxGeometry>
        </mxCell>
        <mxCell id="k1BOMunkP89K-0ppS4L3-35" style="edgeStyle=orthogonalEdgeStyle;rounded=0;orthogonalLoop=1;jettySize=auto;html=1;exitX=0;exitY=0.5;exitDx=0;exitDy=0;" parent="k1BOMunkP89K-0ppS4L3-1" source="k1BOMunkP89K-0ppS4L3-32" target="k1BOMunkP89K-0ppS4L3-33" edge="1">
          <mxGeometry relative="1" as="geometry" />
        </mxCell>
        <mxCell id="k1BOMunkP89K-0ppS4L3-37" style="edgeStyle=orthogonalEdgeStyle;rounded=0;orthogonalLoop=1;jettySize=auto;html=1;entryX=0;entryY=0.5;entryDx=0;entryDy=0;" parent="k1BOMunkP89K-0ppS4L3-1" source="k1BOMunkP89K-0ppS4L3-33" target="k1BOMunkP89K-0ppS4L3-36" edge="1">
          <mxGeometry relative="1" as="geometry">
            <Array as="points">
              <mxPoint x="110" y="490" />
            </Array>
          </mxGeometry>
        </mxCell>
      </root>
    </mxGraphModel>
  </diagram>
  <diagram id="Yg-TqSJbQVn7Jct4lasD" name="launcher时序图">
    <mxGraphModel dx="1434" dy="773" grid="1" gridSize="10" guides="1" tooltips="1" connect="1" arrows="1" fold="1" page="1" pageScale="1" pageWidth="1827" pageHeight="1569" math="0" shadow="0">
      <root>
        <mxCell id="0" />
        <mxCell id="1" parent="0" />
        <mxCell id="8TDsHXuaKIb48M3Z1gF7-1" value="laucher server前端" style="shape=umlLifeline;perimeter=lifelinePerimeter;whiteSpace=wrap;html=1;container=1;dropTarget=0;collapsible=0;recursiveResize=0;outlineConnect=0;portConstraint=eastwest;newEdgeStyle={&quot;edgeStyle&quot;:&quot;elbowEdgeStyle&quot;,&quot;elbow&quot;:&quot;vertical&quot;,&quot;curved&quot;:0,&quot;rounded&quot;:0};" parent="1" vertex="1">
          <mxGeometry x="460" y="80" width="120" height="680" as="geometry" />
        </mxCell>
        <mxCell id="8TDsHXuaKIb48M3Z1gF7-25" value="" style="html=1;points=[];perimeter=orthogonalPerimeter;outlineConnect=0;targetShapes=umlLifeline;portConstraint=eastwest;newEdgeStyle={&quot;edgeStyle&quot;:&quot;elbowEdgeStyle&quot;,&quot;elbow&quot;:&quot;vertical&quot;,&quot;curved&quot;:0,&quot;rounded&quot;:0};" parent="8TDsHXuaKIb48M3Z1gF7-1" vertex="1">
          <mxGeometry x="55" y="220" width="10" height="80" as="geometry" />
        </mxCell>
        <mxCell id="8TDsHXuaKIb48M3Z1gF7-38" value="" style="html=1;points=[];perimeter=orthogonalPerimeter;outlineConnect=0;targetShapes=umlLifeline;portConstraint=eastwest;newEdgeStyle={&quot;edgeStyle&quot;:&quot;elbowEdgeStyle&quot;,&quot;elbow&quot;:&quot;vertical&quot;,&quot;curved&quot;:0,&quot;rounded&quot;:0};" parent="8TDsHXuaKIb48M3Z1gF7-1" vertex="1">
          <mxGeometry x="55" y="350" width="10" height="80" as="geometry" />
        </mxCell>
        <mxCell id="8TDsHXuaKIb48M3Z1gF7-2" value="" style="shape=umlLifeline;perimeter=lifelinePerimeter;whiteSpace=wrap;html=1;container=1;dropTarget=0;collapsible=0;recursiveResize=0;outlineConnect=0;portConstraint=eastwest;newEdgeStyle={&quot;edgeStyle&quot;:&quot;elbowEdgeStyle&quot;,&quot;elbow&quot;:&quot;vertical&quot;,&quot;curved&quot;:0,&quot;rounded&quot;:0};participant=umlActor;" parent="1" vertex="1">
          <mxGeometry x="310" y="80" width="20" height="790" as="geometry" />
        </mxCell>
        <mxCell id="8TDsHXuaKIb48M3Z1gF7-22" value="" style="html=1;points=[];perimeter=orthogonalPerimeter;outlineConnect=0;targetShapes=umlLifeline;portConstraint=eastwest;newEdgeStyle={&quot;edgeStyle&quot;:&quot;elbowEdgeStyle&quot;,&quot;elbow&quot;:&quot;vertical&quot;,&quot;curved&quot;:0,&quot;rounded&quot;:0};" parent="8TDsHXuaKIb48M3Z1gF7-2" vertex="1">
          <mxGeometry x="5" y="210" width="10" height="390" as="geometry" />
        </mxCell>
        <mxCell id="8TDsHXuaKIb48M3Z1gF7-4" value="laucher server后端" style="shape=umlLifeline;perimeter=lifelinePerimeter;whiteSpace=wrap;html=1;container=1;dropTarget=0;collapsible=0;recursiveResize=0;outlineConnect=0;portConstraint=eastwest;newEdgeStyle={&quot;edgeStyle&quot;:&quot;elbowEdgeStyle&quot;,&quot;elbow&quot;:&quot;vertical&quot;,&quot;curved&quot;:0,&quot;rounded&quot;:0};" parent="1" vertex="1">
          <mxGeometry x="660" y="80" width="120" height="680" as="geometry" />
        </mxCell>
        <mxCell id="8TDsHXuaKIb48M3Z1gF7-31" value="" style="html=1;points=[];perimeter=orthogonalPerimeter;outlineConnect=0;targetShapes=umlLifeline;portConstraint=eastwest;newEdgeStyle={&quot;edgeStyle&quot;:&quot;elbowEdgeStyle&quot;,&quot;elbow&quot;:&quot;vertical&quot;,&quot;curved&quot;:0,&quot;rounded&quot;:0};" parent="8TDsHXuaKIb48M3Z1gF7-4" vertex="1">
          <mxGeometry x="55" y="220" width="10" height="80" as="geometry" />
        </mxCell>
        <mxCell id="8TDsHXuaKIb48M3Z1gF7-32" value="2.获取vno支持template列表" style="html=1;verticalAlign=bottom;endArrow=block;edgeStyle=elbowEdgeStyle;elbow=vertical;curved=0;rounded=0;" parent="8TDsHXuaKIb48M3Z1gF7-4" source="8TDsHXuaKIb48M3Z1gF7-1" edge="1">
          <mxGeometry relative="1" as="geometry">
            <mxPoint x="-15" y="230" as="sourcePoint" />
            <mxPoint x="55" y="230" as="targetPoint" />
          </mxGeometry>
        </mxCell>
        <mxCell id="8TDsHXuaKIb48M3Z1gF7-5" value="storage" style="shape=umlLifeline;perimeter=lifelinePerimeter;whiteSpace=wrap;html=1;container=1;dropTarget=0;collapsible=0;recursiveResize=0;outlineConnect=0;portConstraint=eastwest;newEdgeStyle={&quot;edgeStyle&quot;:&quot;elbowEdgeStyle&quot;,&quot;elbow&quot;:&quot;vertical&quot;,&quot;curved&quot;:0,&quot;rounded&quot;:0};" parent="1" vertex="1">
          <mxGeometry x="860" y="80" width="120" height="680" as="geometry" />
        </mxCell>
        <mxCell id="8TDsHXuaKIb48M3Z1gF7-42" value="" style="html=1;points=[];perimeter=orthogonalPerimeter;outlineConnect=0;targetShapes=umlLifeline;portConstraint=eastwest;newEdgeStyle={&quot;edgeStyle&quot;:&quot;elbowEdgeStyle&quot;,&quot;elbow&quot;:&quot;vertical&quot;,&quot;curved&quot;:0,&quot;rounded&quot;:0};" parent="8TDsHXuaKIb48M3Z1gF7-5" vertex="1">
          <mxGeometry x="55" y="350" width="10" height="80" as="geometry" />
        </mxCell>
        <mxCell id="8TDsHXuaKIb48M3Z1gF7-6" value="live portal" style="shape=umlLifeline;perimeter=lifelinePerimeter;whiteSpace=wrap;html=1;container=1;dropTarget=0;collapsible=0;recursiveResize=0;outlineConnect=0;portConstraint=eastwest;newEdgeStyle={&quot;edgeStyle&quot;:&quot;elbowEdgeStyle&quot;,&quot;elbow&quot;:&quot;vertical&quot;,&quot;curved&quot;:0,&quot;rounded&quot;:0};" parent="1" vertex="1">
          <mxGeometry x="1060" y="80" width="120" height="680" as="geometry" />
        </mxCell>
        <mxCell id="8TDsHXuaKIb48M3Z1gF7-35" value="" style="html=1;points=[];perimeter=orthogonalPerimeter;outlineConnect=0;targetShapes=umlLifeline;portConstraint=eastwest;newEdgeStyle={&quot;edgeStyle&quot;:&quot;elbowEdgeStyle&quot;,&quot;elbow&quot;:&quot;vertical&quot;,&quot;curved&quot;:0,&quot;rounded&quot;:0};" parent="8TDsHXuaKIb48M3Z1gF7-6" vertex="1">
          <mxGeometry x="55" y="220" width="10" height="80" as="geometry" />
        </mxCell>
        <mxCell id="8TDsHXuaKIb48M3Z1gF7-7" value="前置条件" style="shape=umlFrame;whiteSpace=wrap;html=1;pointerEvents=0;width=140;height=30;" parent="1" vertex="1">
          <mxGeometry x="250" y="150" width="1150" height="110" as="geometry" />
        </mxCell>
        <mxCell id="8TDsHXuaKIb48M3Z1gF7-9" value="brand" style="text;strokeColor=none;fillColor=none;html=1;fontSize=24;fontStyle=1;verticalAlign=middle;align=center;" parent="1" vertex="1">
          <mxGeometry x="270" y="40" width="100" height="40" as="geometry" />
        </mxCell>
        <mxCell id="8TDsHXuaKIb48M3Z1gF7-21" value="用户点击跳转launcher portal，并鉴权成功" style="text;html=1;strokeColor=none;fillColor=none;align=center;verticalAlign=middle;whiteSpace=wrap;rounded=0;" parent="1" vertex="1">
          <mxGeometry x="320" y="200" width="310" height="30" as="geometry" />
        </mxCell>
        <mxCell id="8TDsHXuaKIb48M3Z1gF7-23" value="package manager" style="shape=umlLifeline;perimeter=lifelinePerimeter;whiteSpace=wrap;html=1;container=1;dropTarget=0;collapsible=0;recursiveResize=0;outlineConnect=0;portConstraint=eastwest;newEdgeStyle={&quot;edgeStyle&quot;:&quot;elbowEdgeStyle&quot;,&quot;elbow&quot;:&quot;vertical&quot;,&quot;curved&quot;:0,&quot;rounded&quot;:0};" parent="1" vertex="1">
          <mxGeometry x="1260" y="80" width="120" height="680" as="geometry" />
        </mxCell>
        <mxCell id="8TDsHXuaKIb48M3Z1gF7-26" value="1.用户点击new 按钮" style="html=1;verticalAlign=bottom;endArrow=block;edgeStyle=elbowEdgeStyle;elbow=vertical;curved=0;rounded=0;" parent="1" edge="1">
          <mxGeometry relative="1" as="geometry">
            <mxPoint x="325" y="306" as="sourcePoint" />
            <mxPoint x="515" y="306" as="targetPoint" />
          </mxGeometry>
        </mxCell>
        <mxCell id="8TDsHXuaKIb48M3Z1gF7-36" value="3.获取vno支持的template列表" style="html=1;verticalAlign=bottom;endArrow=block;edgeStyle=elbowEdgeStyle;elbow=vertical;curved=0;rounded=0;" parent="1" edge="1">
          <mxGeometry relative="1" as="geometry">
            <mxPoint x="725" y="321" as="sourcePoint" />
            <mxPoint x="1115" y="321" as="targetPoint" />
            <mxPoint as="offset" />
          </mxGeometry>
        </mxCell>
        <mxCell id="8TDsHXuaKIb48M3Z1gF7-37" value="" style="html=1;verticalAlign=bottom;endArrow=open;dashed=1;endSize=8;edgeStyle=elbowEdgeStyle;elbow=vertical;curved=0;rounded=0;" parent="1" edge="1">
          <mxGeometry relative="1" as="geometry">
            <mxPoint x="719.5" y="358" as="targetPoint" />
            <mxPoint x="1115" y="358" as="sourcePoint" />
          </mxGeometry>
        </mxCell>
        <mxCell id="8TDsHXuaKIb48M3Z1gF7-33" value="" style="html=1;verticalAlign=bottom;endArrow=open;dashed=1;endSize=8;edgeStyle=elbowEdgeStyle;elbow=vertical;curved=0;rounded=0;" parent="1" edge="1">
          <mxGeometry relative="1" as="geometry">
            <mxPoint x="519.5" y="364" as="targetPoint" />
            <mxPoint x="715" y="364" as="sourcePoint" />
          </mxGeometry>
        </mxCell>
        <mxCell id="8TDsHXuaKIb48M3Z1gF7-27" value="返回basic Info 页面" style="html=1;verticalAlign=bottom;endArrow=open;dashed=1;endSize=8;edgeStyle=elbowEdgeStyle;elbow=vertical;curved=0;rounded=0;" parent="1" edge="1">
          <mxGeometry relative="1" as="geometry">
            <mxPoint x="319.5" y="373" as="targetPoint" />
            <mxPoint x="515" y="373" as="sourcePoint" />
          </mxGeometry>
        </mxCell>
        <mxCell id="8TDsHXuaKIb48M3Z1gF7-39" value="dispatch" style="html=1;verticalAlign=bottom;endArrow=block;edgeStyle=elbowEdgeStyle;elbow=vertical;curved=0;rounded=0;" parent="1" edge="1">
          <mxGeometry relative="1" as="geometry">
            <mxPoint x="319.5" y="432" as="sourcePoint" />
            <mxPoint x="515" y="432" as="targetPoint" />
          </mxGeometry>
        </mxCell>
        <mxCell id="8TDsHXuaKIb48M3Z1gF7-43" value="dispatch" style="html=1;verticalAlign=bottom;endArrow=block;edgeStyle=elbowEdgeStyle;elbow=vertical;curved=0;rounded=0;" parent="1" edge="1">
          <mxGeometry relative="1" as="geometry">
            <mxPoint x="519.5" y="445" as="sourcePoint" />
            <mxPoint x="915" y="445" as="targetPoint" />
            <mxPoint as="offset" />
          </mxGeometry>
        </mxCell>
        <mxCell id="8TDsHXuaKIb48M3Z1gF7-44" value="return" style="html=1;verticalAlign=bottom;endArrow=open;dashed=1;endSize=8;edgeStyle=elbowEdgeStyle;elbow=vertical;curved=0;rounded=0;" parent="1" edge="1">
          <mxGeometry relative="1" as="geometry">
            <mxPoint x="519.5" y="489" as="targetPoint" />
            <mxPoint x="915" y="489" as="sourcePoint" />
          </mxGeometry>
        </mxCell>
        <mxCell id="8TDsHXuaKIb48M3Z1gF7-40" value="return" style="html=1;verticalAlign=bottom;endArrow=open;dashed=1;endSize=8;edgeStyle=elbowEdgeStyle;elbow=vertical;curved=0;rounded=0;" parent="1" edge="1">
          <mxGeometry relative="1" as="geometry">
            <mxPoint x="319.5" y="508" as="targetPoint" />
            <mxPoint x="515" y="508" as="sourcePoint" />
          </mxGeometry>
        </mxCell>
      </root>
    </mxGraphModel>
  </diagram>
  <diagram name="launcher-新建launcher" id="KjeOYXh8kGZw4VeEXacU">
    <mxGraphModel dx="1434" dy="773" grid="1" gridSize="10" guides="1" tooltips="1" connect="1" arrows="1" fold="1" page="1" pageScale="1" pageWidth="1827" pageHeight="1569" math="0" shadow="0">
      <root>
        <mxCell id="97QXLRUj6iJ8jIdUAhH7-0" />
        <mxCell id="97QXLRUj6iJ8jIdUAhH7-1" parent="97QXLRUj6iJ8jIdUAhH7-0" />
        <mxCell id="97QXLRUj6iJ8jIdUAhH7-2" value="laucher server前端" style="shape=umlLifeline;perimeter=lifelinePerimeter;whiteSpace=wrap;html=1;container=1;dropTarget=0;collapsible=0;recursiveResize=0;outlineConnect=0;portConstraint=eastwest;newEdgeStyle={&quot;edgeStyle&quot;:&quot;elbowEdgeStyle&quot;,&quot;elbow&quot;:&quot;vertical&quot;,&quot;curved&quot;:0,&quot;rounded&quot;:0};" parent="97QXLRUj6iJ8jIdUAhH7-1" vertex="1">
          <mxGeometry x="460" y="80" width="120" height="1110" as="geometry" />
        </mxCell>
        <mxCell id="97QXLRUj6iJ8jIdUAhH7-3" value="" style="html=1;points=[];perimeter=orthogonalPerimeter;outlineConnect=0;targetShapes=umlLifeline;portConstraint=eastwest;newEdgeStyle={&quot;edgeStyle&quot;:&quot;elbowEdgeStyle&quot;,&quot;elbow&quot;:&quot;vertical&quot;,&quot;curved&quot;:0,&quot;rounded&quot;:0};" parent="97QXLRUj6iJ8jIdUAhH7-2" vertex="1">
          <mxGeometry x="55" y="220" width="10" height="80" as="geometry" />
        </mxCell>
        <mxCell id="97QXLRUj6iJ8jIdUAhH7-4" value="" style="html=1;points=[];perimeter=orthogonalPerimeter;outlineConnect=0;targetShapes=umlLifeline;portConstraint=eastwest;newEdgeStyle={&quot;edgeStyle&quot;:&quot;elbowEdgeStyle&quot;,&quot;elbow&quot;:&quot;vertical&quot;,&quot;curved&quot;:0,&quot;rounded&quot;:0};" parent="97QXLRUj6iJ8jIdUAhH7-2" vertex="1">
          <mxGeometry x="55" y="513" width="10" height="80" as="geometry" />
        </mxCell>
        <mxCell id="97QXLRUj6iJ8jIdUAhH7-5" value="" style="shape=umlLifeline;perimeter=lifelinePerimeter;whiteSpace=wrap;html=1;container=1;dropTarget=0;collapsible=0;recursiveResize=0;outlineConnect=0;portConstraint=eastwest;newEdgeStyle={&quot;edgeStyle&quot;:&quot;elbowEdgeStyle&quot;,&quot;elbow&quot;:&quot;vertical&quot;,&quot;curved&quot;:0,&quot;rounded&quot;:0};participant=umlActor;" parent="97QXLRUj6iJ8jIdUAhH7-1" vertex="1">
          <mxGeometry x="310" y="80" width="20" height="1120" as="geometry" />
        </mxCell>
        <mxCell id="97QXLRUj6iJ8jIdUAhH7-6" value="" style="html=1;points=[];perimeter=orthogonalPerimeter;outlineConnect=0;targetShapes=umlLifeline;portConstraint=eastwest;newEdgeStyle={&quot;edgeStyle&quot;:&quot;elbowEdgeStyle&quot;,&quot;elbow&quot;:&quot;vertical&quot;,&quot;curved&quot;:0,&quot;rounded&quot;:0};" parent="97QXLRUj6iJ8jIdUAhH7-5" vertex="1">
          <mxGeometry x="5" y="210" width="10" height="540" as="geometry" />
        </mxCell>
        <mxCell id="97QXLRUj6iJ8jIdUAhH7-7" value="laucher server后端" style="shape=umlLifeline;perimeter=lifelinePerimeter;whiteSpace=wrap;html=1;container=1;dropTarget=0;collapsible=0;recursiveResize=0;outlineConnect=0;portConstraint=eastwest;newEdgeStyle={&quot;edgeStyle&quot;:&quot;elbowEdgeStyle&quot;,&quot;elbow&quot;:&quot;vertical&quot;,&quot;curved&quot;:0,&quot;rounded&quot;:0};" parent="97QXLRUj6iJ8jIdUAhH7-1" vertex="1">
          <mxGeometry x="660" y="80" width="120" height="1120" as="geometry" />
        </mxCell>
        <mxCell id="97QXLRUj6iJ8jIdUAhH7-8" value="" style="html=1;points=[];perimeter=orthogonalPerimeter;outlineConnect=0;targetShapes=umlLifeline;portConstraint=eastwest;newEdgeStyle={&quot;edgeStyle&quot;:&quot;elbowEdgeStyle&quot;,&quot;elbow&quot;:&quot;vertical&quot;,&quot;curved&quot;:0,&quot;rounded&quot;:0};" parent="97QXLRUj6iJ8jIdUAhH7-7" vertex="1">
          <mxGeometry x="55" y="220" width="10" height="80" as="geometry" />
        </mxCell>
        <mxCell id="97QXLRUj6iJ8jIdUAhH7-9" value="获取vno支持template列表" style="html=1;verticalAlign=bottom;endArrow=block;edgeStyle=elbowEdgeStyle;elbow=vertical;curved=0;rounded=0;" parent="97QXLRUj6iJ8jIdUAhH7-7" source="97QXLRUj6iJ8jIdUAhH7-2" edge="1">
          <mxGeometry relative="1" as="geometry">
            <mxPoint x="-15" y="230" as="sourcePoint" />
            <mxPoint x="55" y="230" as="targetPoint" />
          </mxGeometry>
        </mxCell>
        <mxCell id="VQ_W6rk55NhumFkEjovJ-0" value="" style="html=1;points=[];perimeter=orthogonalPerimeter;outlineConnect=0;targetShapes=umlLifeline;portConstraint=eastwest;newEdgeStyle={&quot;edgeStyle&quot;:&quot;elbowEdgeStyle&quot;,&quot;elbow&quot;:&quot;vertical&quot;,&quot;curved&quot;:0,&quot;rounded&quot;:0};" parent="97QXLRUj6iJ8jIdUAhH7-7" vertex="1">
          <mxGeometry x="55" y="513" width="10" height="80" as="geometry" />
        </mxCell>
        <mxCell id="97QXLRUj6iJ8jIdUAhH7-12" value="live portal" style="shape=umlLifeline;perimeter=lifelinePerimeter;whiteSpace=wrap;html=1;container=1;dropTarget=0;collapsible=0;recursiveResize=0;outlineConnect=0;portConstraint=eastwest;newEdgeStyle={&quot;edgeStyle&quot;:&quot;elbowEdgeStyle&quot;,&quot;elbow&quot;:&quot;vertical&quot;,&quot;curved&quot;:0,&quot;rounded&quot;:0};" parent="97QXLRUj6iJ8jIdUAhH7-1" vertex="1">
          <mxGeometry x="860" y="80" width="120" height="1120" as="geometry" />
        </mxCell>
        <mxCell id="97QXLRUj6iJ8jIdUAhH7-13" value="" style="html=1;points=[];perimeter=orthogonalPerimeter;outlineConnect=0;targetShapes=umlLifeline;portConstraint=eastwest;newEdgeStyle={&quot;edgeStyle&quot;:&quot;elbowEdgeStyle&quot;,&quot;elbow&quot;:&quot;vertical&quot;,&quot;curved&quot;:0,&quot;rounded&quot;:0};" parent="97QXLRUj6iJ8jIdUAhH7-12" vertex="1">
          <mxGeometry x="55" y="220" width="10" height="80" as="geometry" />
        </mxCell>
        <mxCell id="97QXLRUj6iJ8jIdUAhH7-14" value="前置条件" style="shape=umlFrame;whiteSpace=wrap;html=1;pointerEvents=0;width=140;height=30;" parent="97QXLRUj6iJ8jIdUAhH7-1" vertex="1">
          <mxGeometry x="250" y="160" width="1030" height="100" as="geometry" />
        </mxCell>
        <mxCell id="97QXLRUj6iJ8jIdUAhH7-15" value="brand" style="text;strokeColor=none;fillColor=none;html=1;fontSize=24;fontStyle=1;verticalAlign=middle;align=center;" parent="97QXLRUj6iJ8jIdUAhH7-1" vertex="1">
          <mxGeometry x="270" y="40" width="100" height="40" as="geometry" />
        </mxCell>
        <mxCell id="97QXLRUj6iJ8jIdUAhH7-16" value="用户点击跳转launcher portal，并鉴权成功" style="text;html=1;strokeColor=none;fillColor=none;align=center;verticalAlign=middle;whiteSpace=wrap;rounded=0;" parent="97QXLRUj6iJ8jIdUAhH7-1" vertex="1">
          <mxGeometry x="320" y="200" width="310" height="30" as="geometry" />
        </mxCell>
        <mxCell id="97QXLRUj6iJ8jIdUAhH7-17" value="package manager" style="shape=umlLifeline;perimeter=lifelinePerimeter;whiteSpace=wrap;html=1;container=1;dropTarget=0;collapsible=0;recursiveResize=0;outlineConnect=0;portConstraint=eastwest;newEdgeStyle={&quot;edgeStyle&quot;:&quot;elbowEdgeStyle&quot;,&quot;elbow&quot;:&quot;vertical&quot;,&quot;curved&quot;:0,&quot;rounded&quot;:0};" parent="97QXLRUj6iJ8jIdUAhH7-1" vertex="1">
          <mxGeometry x="1060" y="80" width="120" height="1120" as="geometry" />
        </mxCell>
        <mxCell id="VQ_W6rk55NhumFkEjovJ-49" value="" style="html=1;points=[];perimeter=orthogonalPerimeter;outlineConnect=0;targetShapes=umlLifeline;portConstraint=eastwest;newEdgeStyle={&quot;edgeStyle&quot;:&quot;elbowEdgeStyle&quot;,&quot;elbow&quot;:&quot;vertical&quot;,&quot;curved&quot;:0,&quot;rounded&quot;:0};" parent="97QXLRUj6iJ8jIdUAhH7-17" vertex="1">
          <mxGeometry x="55" y="791" width="10" height="40" as="geometry" />
        </mxCell>
        <mxCell id="VQ_W6rk55NhumFkEjovJ-53" value="" style="html=1;points=[];perimeter=orthogonalPerimeter;outlineConnect=0;targetShapes=umlLifeline;portConstraint=eastwest;newEdgeStyle={&quot;edgeStyle&quot;:&quot;elbowEdgeStyle&quot;,&quot;elbow&quot;:&quot;vertical&quot;,&quot;curved&quot;:0,&quot;rounded&quot;:0};" parent="97QXLRUj6iJ8jIdUAhH7-17" vertex="1">
          <mxGeometry x="55" y="888" width="10" height="40" as="geometry" />
        </mxCell>
        <mxCell id="VQ_W6rk55NhumFkEjovJ-54" value="查询打包进度，并更新相关数据&lt;br&gt;（apkUrl，packageStatus，packageEndTime）" style="html=1;align=left;spacingLeft=2;endArrow=block;rounded=0;edgeStyle=orthogonalEdgeStyle;curved=0;rounded=0;" parent="97QXLRUj6iJ8jIdUAhH7-17" target="VQ_W6rk55NhumFkEjovJ-53" edge="1">
          <mxGeometry x="0.0118" relative="1" as="geometry">
            <mxPoint x="60" y="868" as="sourcePoint" />
            <Array as="points">
              <mxPoint x="90" y="898" />
            </Array>
            <mxPoint as="offset" />
          </mxGeometry>
        </mxCell>
        <mxCell id="97QXLRUj6iJ8jIdUAhH7-18" value="1.用户点击new 按钮" style="html=1;verticalAlign=bottom;endArrow=block;edgeStyle=elbowEdgeStyle;elbow=vertical;curved=0;rounded=0;" parent="97QXLRUj6iJ8jIdUAhH7-1" edge="1">
          <mxGeometry relative="1" as="geometry">
            <mxPoint x="325" y="306" as="sourcePoint" />
            <mxPoint x="515" y="306" as="targetPoint" />
          </mxGeometry>
        </mxCell>
        <mxCell id="97QXLRUj6iJ8jIdUAhH7-19" value="获取vno支持的template列表" style="html=1;verticalAlign=bottom;endArrow=block;edgeStyle=elbowEdgeStyle;elbow=vertical;curved=0;rounded=0;" parent="97QXLRUj6iJ8jIdUAhH7-1" target="97QXLRUj6iJ8jIdUAhH7-13" edge="1">
          <mxGeometry relative="1" as="geometry">
            <mxPoint x="725" y="321" as="sourcePoint" />
            <mxPoint x="910" y="320" as="targetPoint" />
            <Array as="points">
              <mxPoint x="910" y="320" />
            </Array>
            <mxPoint as="offset" />
          </mxGeometry>
        </mxCell>
        <mxCell id="97QXLRUj6iJ8jIdUAhH7-20" value="" style="html=1;verticalAlign=bottom;endArrow=open;dashed=1;endSize=8;edgeStyle=elbowEdgeStyle;elbow=vertical;curved=0;rounded=0;" parent="97QXLRUj6iJ8jIdUAhH7-1" source="97QXLRUj6iJ8jIdUAhH7-13" edge="1">
          <mxGeometry relative="1" as="geometry">
            <mxPoint x="719.5" y="358" as="targetPoint" />
            <mxPoint x="1115" y="358" as="sourcePoint" />
          </mxGeometry>
        </mxCell>
        <mxCell id="97QXLRUj6iJ8jIdUAhH7-21" value="" style="html=1;verticalAlign=bottom;endArrow=open;dashed=1;endSize=8;edgeStyle=elbowEdgeStyle;elbow=vertical;curved=0;rounded=0;" parent="97QXLRUj6iJ8jIdUAhH7-1" edge="1">
          <mxGeometry relative="1" as="geometry">
            <mxPoint x="519.5" y="364" as="targetPoint" />
            <mxPoint x="715" y="364" as="sourcePoint" />
          </mxGeometry>
        </mxCell>
        <mxCell id="97QXLRUj6iJ8jIdUAhH7-22" value="跳转basic Info 页面（step 1）" style="html=1;verticalAlign=bottom;endArrow=open;dashed=1;endSize=8;edgeStyle=elbowEdgeStyle;elbow=vertical;curved=0;rounded=0;" parent="97QXLRUj6iJ8jIdUAhH7-1" edge="1">
          <mxGeometry relative="1" as="geometry">
            <mxPoint x="319.5" y="373" as="targetPoint" />
            <mxPoint x="515" y="373" as="sourcePoint" />
          </mxGeometry>
        </mxCell>
        <mxCell id="97QXLRUj6iJ8jIdUAhH7-23" value="2.录入launcher基本信息，&lt;br&gt;上传图片，并提交" style="html=1;verticalAlign=bottom;endArrow=block;edgeStyle=elbowEdgeStyle;elbow=vertical;curved=0;rounded=0;" parent="97QXLRUj6iJ8jIdUAhH7-1" edge="1">
          <mxGeometry relative="1" as="geometry">
            <mxPoint x="319.5" y="595" as="sourcePoint" />
            <mxPoint x="515" y="595" as="targetPoint" />
          </mxGeometry>
        </mxCell>
        <mxCell id="97QXLRUj6iJ8jIdUAhH7-26" value="跳转Homepageapp页面（step 2）" style="html=1;verticalAlign=bottom;endArrow=open;dashed=1;endSize=8;edgeStyle=elbowEdgeStyle;elbow=vertical;curved=0;rounded=0;" parent="97QXLRUj6iJ8jIdUAhH7-1" edge="1">
          <mxGeometry relative="1" as="geometry">
            <mxPoint x="319.5" y="671" as="targetPoint" />
            <mxPoint x="515" y="671" as="sourcePoint" />
          </mxGeometry>
        </mxCell>
        <mxCell id="VQ_W6rk55NhumFkEjovJ-1" value="提交信息至后台" style="html=1;verticalAlign=bottom;endArrow=block;edgeStyle=elbowEdgeStyle;elbow=vertical;curved=0;rounded=0;" parent="97QXLRUj6iJ8jIdUAhH7-1" edge="1">
          <mxGeometry relative="1" as="geometry">
            <mxPoint x="519.5" y="610" as="sourcePoint" />
            <mxPoint x="715" y="610" as="targetPoint" />
          </mxGeometry>
        </mxCell>
        <mxCell id="VQ_W6rk55NhumFkEjovJ-2" value="" style="html=1;verticalAlign=bottom;endArrow=open;dashed=1;endSize=8;edgeStyle=elbowEdgeStyle;elbow=vertical;curved=0;rounded=0;" parent="97QXLRUj6iJ8jIdUAhH7-1" edge="1">
          <mxGeometry relative="1" as="geometry">
            <mxPoint x="519.5" y="658" as="targetPoint" />
            <mxPoint x="715" y="658" as="sourcePoint" />
          </mxGeometry>
        </mxCell>
        <mxCell id="VQ_W6rk55NhumFkEjovJ-3" value="新建：&lt;br&gt;gs_launcher_base_info&lt;br&gt;gs_launcher_version_info" style="text;html=1;strokeColor=none;fillColor=none;align=left;verticalAlign=middle;whiteSpace=wrap;rounded=0;" parent="97QXLRUj6iJ8jIdUAhH7-1" vertex="1">
          <mxGeometry x="730" y="613" width="200" height="30" as="geometry" />
        </mxCell>
        <mxCell id="VQ_W6rk55NhumFkEjovJ-4" value="" style="html=1;points=[];perimeter=orthogonalPerimeter;outlineConnect=0;targetShapes=umlLifeline;portConstraint=eastwest;newEdgeStyle={&quot;edgeStyle&quot;:&quot;elbowEdgeStyle&quot;,&quot;elbow&quot;:&quot;vertical&quot;,&quot;curved&quot;:0,&quot;rounded&quot;:0};" parent="97QXLRUj6iJ8jIdUAhH7-1" vertex="1">
          <mxGeometry x="515.5" y="723" width="10" height="80" as="geometry" />
        </mxCell>
        <mxCell id="VQ_W6rk55NhumFkEjovJ-5" value="" style="html=1;points=[];perimeter=orthogonalPerimeter;outlineConnect=0;targetShapes=umlLifeline;portConstraint=eastwest;newEdgeStyle={&quot;edgeStyle&quot;:&quot;elbowEdgeStyle&quot;,&quot;elbow&quot;:&quot;vertical&quot;,&quot;curved&quot;:0,&quot;rounded&quot;:0};" parent="97QXLRUj6iJ8jIdUAhH7-1" vertex="1">
          <mxGeometry x="715.5" y="723" width="10" height="80" as="geometry" />
        </mxCell>
        <mxCell id="VQ_W6rk55NhumFkEjovJ-6" value="3.录入homepageapp信息，并提交" style="html=1;verticalAlign=bottom;endArrow=block;edgeStyle=elbowEdgeStyle;elbow=vertical;curved=0;rounded=0;" parent="97QXLRUj6iJ8jIdUAhH7-1" edge="1">
          <mxGeometry relative="1" as="geometry">
            <mxPoint x="320" y="725" as="sourcePoint" />
            <mxPoint x="515.5" y="725" as="targetPoint" />
          </mxGeometry>
        </mxCell>
        <mxCell id="VQ_W6rk55NhumFkEjovJ-7" value="跳转package页" style="html=1;verticalAlign=bottom;endArrow=open;dashed=1;endSize=8;edgeStyle=elbowEdgeStyle;elbow=vertical;curved=0;rounded=0;" parent="97QXLRUj6iJ8jIdUAhH7-1" edge="1">
          <mxGeometry relative="1" as="geometry">
            <mxPoint x="320" y="801" as="targetPoint" />
            <mxPoint x="515.5" y="801" as="sourcePoint" />
          </mxGeometry>
        </mxCell>
        <mxCell id="VQ_W6rk55NhumFkEjovJ-8" value="提交信息至后台" style="html=1;verticalAlign=bottom;endArrow=block;edgeStyle=elbowEdgeStyle;elbow=vertical;curved=0;rounded=0;" parent="97QXLRUj6iJ8jIdUAhH7-1" edge="1">
          <mxGeometry relative="1" as="geometry">
            <mxPoint x="520" y="740" as="sourcePoint" />
            <mxPoint x="715.5" y="740" as="targetPoint" />
          </mxGeometry>
        </mxCell>
        <mxCell id="VQ_W6rk55NhumFkEjovJ-9" value="return" style="html=1;verticalAlign=bottom;endArrow=open;dashed=1;endSize=8;edgeStyle=elbowEdgeStyle;elbow=vertical;curved=0;rounded=0;" parent="97QXLRUj6iJ8jIdUAhH7-1" edge="1">
          <mxGeometry relative="1" as="geometry">
            <mxPoint x="520" y="788" as="targetPoint" />
            <mxPoint x="715.5" y="788" as="sourcePoint" />
          </mxGeometry>
        </mxCell>
        <mxCell id="VQ_W6rk55NhumFkEjovJ-10" value="新建gs_launcher_version_app_info" style="text;html=1;strokeColor=none;fillColor=none;align=left;verticalAlign=middle;whiteSpace=wrap;rounded=0;" parent="97QXLRUj6iJ8jIdUAhH7-1" vertex="1">
          <mxGeometry x="730.5" y="743" width="180" height="30" as="geometry" />
        </mxCell>
        <mxCell id="VQ_W6rk55NhumFkEjovJ-42" value="" style="html=1;points=[];perimeter=orthogonalPerimeter;outlineConnect=0;targetShapes=umlLifeline;portConstraint=eastwest;newEdgeStyle={&quot;edgeStyle&quot;:&quot;elbowEdgeStyle&quot;,&quot;elbow&quot;:&quot;vertical&quot;,&quot;curved&quot;:0,&quot;rounded&quot;:0};" parent="97QXLRUj6iJ8jIdUAhH7-1" vertex="1">
          <mxGeometry x="515.5" y="851" width="10" height="80" as="geometry" />
        </mxCell>
        <mxCell id="VQ_W6rk55NhumFkEjovJ-43" value="" style="html=1;points=[];perimeter=orthogonalPerimeter;outlineConnect=0;targetShapes=umlLifeline;portConstraint=eastwest;newEdgeStyle={&quot;edgeStyle&quot;:&quot;elbowEdgeStyle&quot;,&quot;elbow&quot;:&quot;vertical&quot;,&quot;curved&quot;:0,&quot;rounded&quot;:0};" parent="97QXLRUj6iJ8jIdUAhH7-1" vertex="1">
          <mxGeometry x="715.5" y="851" width="10" height="80" as="geometry" />
        </mxCell>
        <mxCell id="VQ_W6rk55NhumFkEjovJ-44" value="4.点击package按钮 提交打包" style="html=1;verticalAlign=bottom;endArrow=block;edgeStyle=elbowEdgeStyle;elbow=vertical;curved=0;rounded=0;" parent="97QXLRUj6iJ8jIdUAhH7-1" edge="1">
          <mxGeometry relative="1" as="geometry">
            <mxPoint x="320" y="853" as="sourcePoint" />
            <mxPoint x="515.5" y="853" as="targetPoint" />
          </mxGeometry>
        </mxCell>
        <mxCell id="VQ_W6rk55NhumFkEjovJ-45" value="返回提交结果" style="html=1;verticalAlign=bottom;endArrow=open;dashed=1;endSize=8;edgeStyle=elbowEdgeStyle;elbow=vertical;curved=0;rounded=0;" parent="97QXLRUj6iJ8jIdUAhH7-1" edge="1">
          <mxGeometry relative="1" as="geometry">
            <mxPoint x="320" y="929" as="targetPoint" />
            <mxPoint x="515.5" y="929" as="sourcePoint" />
          </mxGeometry>
        </mxCell>
        <mxCell id="VQ_W6rk55NhumFkEjovJ-46" value="提交打包" style="html=1;verticalAlign=bottom;endArrow=block;edgeStyle=elbowEdgeStyle;elbow=vertical;curved=0;rounded=0;" parent="97QXLRUj6iJ8jIdUAhH7-1" edge="1">
          <mxGeometry relative="1" as="geometry">
            <mxPoint x="520" y="868" as="sourcePoint" />
            <mxPoint x="715.5" y="868" as="targetPoint" />
          </mxGeometry>
        </mxCell>
        <mxCell id="VQ_W6rk55NhumFkEjovJ-47" value="" style="html=1;verticalAlign=bottom;endArrow=open;dashed=1;endSize=8;edgeStyle=elbowEdgeStyle;elbow=vertical;curved=0;rounded=0;" parent="97QXLRUj6iJ8jIdUAhH7-1" edge="1">
          <mxGeometry relative="1" as="geometry">
            <mxPoint x="520" y="916" as="targetPoint" />
            <mxPoint x="715.5" y="916" as="sourcePoint" />
          </mxGeometry>
        </mxCell>
        <mxCell id="VQ_W6rk55NhumFkEjovJ-50" value="提交打包" style="html=1;verticalAlign=bottom;endArrow=block;edgeStyle=elbowEdgeStyle;elbow=vertical;curved=0;rounded=0;" parent="97QXLRUj6iJ8jIdUAhH7-1" edge="1">
          <mxGeometry relative="1" as="geometry">
            <mxPoint x="719.5" y="879" as="sourcePoint" />
            <mxPoint x="1119.5" y="879" as="targetPoint" />
          </mxGeometry>
        </mxCell>
        <mxCell id="VQ_W6rk55NhumFkEjovJ-52" value="" style="html=1;verticalAlign=bottom;endArrow=open;dashed=1;endSize=8;edgeStyle=elbowEdgeStyle;elbow=vertical;curved=0;rounded=0;" parent="97QXLRUj6iJ8jIdUAhH7-1" edge="1">
          <mxGeometry relative="1" as="geometry">
            <mxPoint x="718" y="903" as="targetPoint" />
            <mxPoint x="1119.5" y="903" as="sourcePoint" />
          </mxGeometry>
        </mxCell>
        <mxCell id="aammd2c-ieQamPHXnXh1-0" value="" style="html=1;points=[];perimeter=orthogonalPerimeter;outlineConnect=0;targetShapes=umlLifeline;portConstraint=eastwest;newEdgeStyle={&quot;edgeStyle&quot;:&quot;elbowEdgeStyle&quot;,&quot;elbow&quot;:&quot;vertical&quot;,&quot;curved&quot;:0,&quot;rounded&quot;:0};" vertex="1" parent="97QXLRUj6iJ8jIdUAhH7-1">
          <mxGeometry x="514" y="428" width="10" height="80" as="geometry" />
        </mxCell>
        <mxCell id="aammd2c-ieQamPHXnXh1-1" value="" style="html=1;points=[];perimeter=orthogonalPerimeter;outlineConnect=0;targetShapes=umlLifeline;portConstraint=eastwest;newEdgeStyle={&quot;edgeStyle&quot;:&quot;elbowEdgeStyle&quot;,&quot;elbow&quot;:&quot;vertical&quot;,&quot;curved&quot;:0,&quot;rounded&quot;:0};" vertex="1" parent="97QXLRUj6iJ8jIdUAhH7-1">
          <mxGeometry x="714" y="428" width="10" height="80" as="geometry" />
        </mxCell>
        <mxCell id="aammd2c-ieQamPHXnXh1-2" value="" style="html=1;verticalAlign=bottom;endArrow=block;edgeStyle=elbowEdgeStyle;elbow=vertical;curved=0;rounded=0;" edge="1" parent="97QXLRUj6iJ8jIdUAhH7-1">
          <mxGeometry relative="1" as="geometry">
            <mxPoint x="519" y="438" as="sourcePoint" />
            <mxPoint x="714" y="438" as="targetPoint" />
          </mxGeometry>
        </mxCell>
        <mxCell id="aammd2c-ieQamPHXnXh1-3" value="" style="html=1;points=[];perimeter=orthogonalPerimeter;outlineConnect=0;targetShapes=umlLifeline;portConstraint=eastwest;newEdgeStyle={&quot;edgeStyle&quot;:&quot;elbowEdgeStyle&quot;,&quot;elbow&quot;:&quot;vertical&quot;,&quot;curved&quot;:0,&quot;rounded&quot;:0};" vertex="1" parent="97QXLRUj6iJ8jIdUAhH7-1">
          <mxGeometry x="914" y="428" width="10" height="80" as="geometry" />
        </mxCell>
        <mxCell id="aammd2c-ieQamPHXnXh1-4" value="2.点击setdomain按钮获取app&lt;br&gt;&amp;amp;Gallery domain地址&lt;br&gt;&lt;span class=&quot;lark-record-clipboard&quot; data-lark-record-format=&quot;docx/text&quot; data-lark-record-data=&quot;{&amp;quot;rootId&amp;quot;:&amp;quot;WVlDdUm7Lor1thxGxDil7rhBgab&amp;quot;,&amp;quot;text&amp;quot;:{&amp;quot;initialAttributedTexts&amp;quot;:{&amp;quot;text&amp;quot;:{&amp;quot;0&amp;quot;:&amp;quot;App-Gallery&amp;quot;},&amp;quot;attribs&amp;quot;:{&amp;quot;0&amp;quot;:&amp;quot;*0+b&amp;quot;}},&amp;quot;apool&amp;quot;:{&amp;quot;numToAttrib&amp;quot;:{&amp;quot;0&amp;quot;:[&amp;quot;author&amp;quot;,&amp;quot;7252519500719849503&amp;quot;]},&amp;quot;nextNum&amp;quot;:1}},&amp;quot;type&amp;quot;:&amp;quot;text&amp;quot;,&amp;quot;referenceRecordMap&amp;quot;:{},&amp;quot;extra&amp;quot;:{&amp;quot;mention_page_title&amp;quot;:{},&amp;quot;external_mention_url&amp;quot;:{}},&amp;quot;isKeepQuoteContainer&amp;quot;:false,&amp;quot;isFromCode&amp;quot;:false,&amp;quot;selection&amp;quot;:[{&amp;quot;id&amp;quot;:243,&amp;quot;type&amp;quot;:&amp;quot;text&amp;quot;,&amp;quot;selection&amp;quot;:{&amp;quot;start&amp;quot;:33,&amp;quot;end&amp;quot;:44},&amp;quot;recordId&amp;quot;:&amp;quot;Y0kAdOWSEovG2oxNwyjl5O1NgRe&amp;quot;}],&amp;quot;payloadMap&amp;quot;:{},&amp;quot;isCut&amp;quot;:false}&quot;&gt;&lt;/span&gt;" style="html=1;verticalAlign=bottom;endArrow=block;edgeStyle=elbowEdgeStyle;elbow=vertical;curved=0;rounded=0;" edge="1" parent="97QXLRUj6iJ8jIdUAhH7-1">
          <mxGeometry relative="1" as="geometry">
            <mxPoint x="324" y="434" as="sourcePoint" />
            <mxPoint x="514" y="434" as="targetPoint" />
          </mxGeometry>
        </mxCell>
        <mxCell id="aammd2c-ieQamPHXnXh1-5" value="" style="html=1;verticalAlign=bottom;endArrow=block;edgeStyle=elbowEdgeStyle;elbow=vertical;curved=0;rounded=0;" edge="1" parent="97QXLRUj6iJ8jIdUAhH7-1" target="aammd2c-ieQamPHXnXh1-3">
          <mxGeometry relative="1" as="geometry">
            <mxPoint x="724" y="449" as="sourcePoint" />
            <mxPoint x="909" y="448" as="targetPoint" />
            <Array as="points">
              <mxPoint x="909" y="448" />
            </Array>
            <mxPoint as="offset" />
          </mxGeometry>
        </mxCell>
        <mxCell id="aammd2c-ieQamPHXnXh1-6" value="" style="html=1;verticalAlign=bottom;endArrow=open;dashed=1;endSize=8;edgeStyle=elbowEdgeStyle;elbow=vertical;curved=0;rounded=0;" edge="1" parent="97QXLRUj6iJ8jIdUAhH7-1" source="aammd2c-ieQamPHXnXh1-3">
          <mxGeometry relative="1" as="geometry">
            <mxPoint x="718.5" y="486" as="targetPoint" />
            <mxPoint x="1114" y="486" as="sourcePoint" />
          </mxGeometry>
        </mxCell>
        <mxCell id="aammd2c-ieQamPHXnXh1-7" value="" style="html=1;verticalAlign=bottom;endArrow=open;dashed=1;endSize=8;edgeStyle=elbowEdgeStyle;elbow=vertical;curved=0;rounded=0;" edge="1" parent="97QXLRUj6iJ8jIdUAhH7-1">
          <mxGeometry relative="1" as="geometry">
            <mxPoint x="518.5" y="492" as="targetPoint" />
            <mxPoint x="714" y="492" as="sourcePoint" />
          </mxGeometry>
        </mxCell>
        <mxCell id="aammd2c-ieQamPHXnXh1-8" value="回显domain地址" style="html=1;verticalAlign=bottom;endArrow=open;dashed=1;endSize=8;edgeStyle=elbowEdgeStyle;elbow=vertical;curved=0;rounded=0;" edge="1" parent="97QXLRUj6iJ8jIdUAhH7-1">
          <mxGeometry relative="1" as="geometry">
            <mxPoint x="318.5" y="501" as="targetPoint" />
            <mxPoint x="514" y="501" as="sourcePoint" />
          </mxGeometry>
        </mxCell>
      </root>
    </mxGraphModel>
  </diagram>
  <diagram id="uBThqamTgpR_1DKPA4x8" name="9.lac变更">
    <mxGraphModel dx="1434" dy="773" grid="1" gridSize="10" guides="1" tooltips="1" connect="1" arrows="1" fold="1" page="1" pageScale="1" pageWidth="1827" pageHeight="1569" math="0" shadow="0">
      <root>
        <mxCell id="0" />
        <mxCell id="1" parent="0" />
        <mxCell id="cCN0SDyyd2OOuWulII2F-28" value="" style="edgeStyle=orthogonalEdgeStyle;rounded=0;orthogonalLoop=1;jettySize=auto;html=1;" edge="1" parent="1" source="cCN0SDyyd2OOuWulII2F-4" target="cCN0SDyyd2OOuWulII2F-14">
          <mxGeometry relative="1" as="geometry" />
        </mxCell>
        <mxCell id="cCN0SDyyd2OOuWulII2F-4" value="vno提交lac配置变更" style="whiteSpace=wrap;html=1;rounded=0;arcSize=14;strokeWidth=2;" vertex="1" parent="1">
          <mxGeometry x="320" y="80" width="120" height="60" as="geometry" />
        </mxCell>
        <mxCell id="cCN0SDyyd2OOuWulII2F-18" value="" style="edgeStyle=orthogonalEdgeStyle;rounded=0;orthogonalLoop=1;jettySize=auto;html=1;" edge="1" parent="1" source="cCN0SDyyd2OOuWulII2F-14">
          <mxGeometry relative="1" as="geometry">
            <mxPoint x="540" y="213" as="targetPoint" />
          </mxGeometry>
        </mxCell>
        <mxCell id="cCN0SDyyd2OOuWulII2F-30" value="" style="edgeStyle=orthogonalEdgeStyle;rounded=0;orthogonalLoop=1;jettySize=auto;html=1;" edge="1" parent="1" source="cCN0SDyyd2OOuWulII2F-14" target="cCN0SDyyd2OOuWulII2F-29">
          <mxGeometry relative="1" as="geometry" />
        </mxCell>
        <mxCell id="cCN0SDyyd2OOuWulII2F-14" value="数据是否满足规则" style="rhombus;whiteSpace=wrap;html=1;rounded=0;arcSize=14;strokeWidth=2;" vertex="1" parent="1">
          <mxGeometry x="320" y="173" width="120" height="80" as="geometry" />
        </mxCell>
        <mxCell id="cCN0SDyyd2OOuWulII2F-19" value="返回错误提示" style="strokeWidth=2;html=1;shape=mxgraph.flowchart.start_1;whiteSpace=wrap;" vertex="1" parent="1">
          <mxGeometry x="540" y="183" width="100" height="60" as="geometry" />
        </mxCell>
        <mxCell id="cCN0SDyyd2OOuWulII2F-20" value="no" style="text;html=1;align=center;verticalAlign=middle;resizable=0;points=[];autosize=1;strokeColor=none;fillColor=none;" vertex="1" parent="1">
          <mxGeometry x="480" y="191" width="40" height="30" as="geometry" />
        </mxCell>
        <mxCell id="cCN0SDyyd2OOuWulII2F-24" value="" style="edgeStyle=orthogonalEdgeStyle;rounded=0;orthogonalLoop=1;jettySize=auto;html=1;" edge="1" parent="1" source="cCN0SDyyd2OOuWulII2F-21" target="cCN0SDyyd2OOuWulII2F-23">
          <mxGeometry relative="1" as="geometry" />
        </mxCell>
        <mxCell id="cCN0SDyyd2OOuWulII2F-21" value="更新rule；value；item表数据" style="rounded=0;whiteSpace=wrap;html=1;arcSize=14;strokeWidth=2;" vertex="1" parent="1">
          <mxGeometry x="320" y="382" width="120" height="60" as="geometry" />
        </mxCell>
        <mxCell id="cCN0SDyyd2OOuWulII2F-26" value="" style="edgeStyle=orthogonalEdgeStyle;rounded=0;orthogonalLoop=1;jettySize=auto;html=1;" edge="1" parent="1" source="cCN0SDyyd2OOuWulII2F-23" target="cCN0SDyyd2OOuWulII2F-25">
          <mxGeometry relative="1" as="geometry" />
        </mxCell>
        <mxCell id="cCN0SDyyd2OOuWulII2F-23" value="将rule；item相关信息同步至redis缓存" style="rounded=0;whiteSpace=wrap;html=1;arcSize=14;strokeWidth=2;" vertex="1" parent="1">
          <mxGeometry x="320" y="478" width="120" height="60" as="geometry" />
        </mxCell>
        <mxCell id="cCN0SDyyd2OOuWulII2F-37" style="edgeStyle=orthogonalEdgeStyle;rounded=0;orthogonalLoop=1;jettySize=auto;html=1;entryX=0.5;entryY=0;entryDx=0;entryDy=0;entryPerimeter=0;" edge="1" parent="1" source="cCN0SDyyd2OOuWulII2F-25" target="cCN0SDyyd2OOuWulII2F-36">
          <mxGeometry relative="1" as="geometry" />
        </mxCell>
        <mxCell id="cCN0SDyyd2OOuWulII2F-38" value="no" style="edgeLabel;html=1;align=center;verticalAlign=middle;resizable=0;points=[];" vertex="1" connectable="0" parent="cCN0SDyyd2OOuWulII2F-37">
          <mxGeometry x="-0.1644" y="2" relative="1" as="geometry">
            <mxPoint as="offset" />
          </mxGeometry>
        </mxCell>
        <mxCell id="cCN0SDyyd2OOuWulII2F-39" value="yes" style="edgeStyle=orthogonalEdgeStyle;rounded=0;orthogonalLoop=1;jettySize=auto;html=1;" edge="1" parent="1" source="cCN0SDyyd2OOuWulII2F-25" target="cCN0SDyyd2OOuWulII2F-32">
          <mxGeometry relative="1" as="geometry" />
        </mxCell>
        <mxCell id="cCN0SDyyd2OOuWulII2F-25" value="是否online" style="rhombus;whiteSpace=wrap;html=1;rounded=0;arcSize=14;strokeWidth=2;" vertex="1" parent="1">
          <mxGeometry x="320" y="575" width="120" height="80" as="geometry" />
        </mxCell>
        <mxCell id="cCN0SDyyd2OOuWulII2F-31" value="" style="edgeStyle=orthogonalEdgeStyle;rounded=0;orthogonalLoop=1;jettySize=auto;html=1;" edge="1" parent="1" source="cCN0SDyyd2OOuWulII2F-29" target="cCN0SDyyd2OOuWulII2F-21">
          <mxGeometry relative="1" as="geometry" />
        </mxCell>
        <mxCell id="cCN0SDyyd2OOuWulII2F-29" value="识别出需重新刷新缓存的元数据vmsId" style="whiteSpace=wrap;html=1;rounded=0;arcSize=14;strokeWidth=2;" vertex="1" parent="1">
          <mxGeometry x="320" y="280" width="120" height="60" as="geometry" />
        </mxCell>
        <mxCell id="cCN0SDyyd2OOuWulII2F-35" value="" style="edgeStyle=orthogonalEdgeStyle;rounded=0;orthogonalLoop=1;jettySize=auto;html=1;" edge="1" parent="1" source="cCN0SDyyd2OOuWulII2F-32">
          <mxGeometry relative="1" as="geometry">
            <mxPoint x="540" y="723" as="targetPoint" />
          </mxGeometry>
        </mxCell>
        <mxCell id="cCN0SDyyd2OOuWulII2F-32" value="同步元数据" style="shape=process;whiteSpace=wrap;html=1;backgroundOutline=1;rounded=0;arcSize=14;strokeWidth=2;" vertex="1" parent="1">
          <mxGeometry x="320" y="693" width="120" height="60" as="geometry" />
        </mxCell>
        <mxCell id="cCN0SDyyd2OOuWulII2F-36" value="结束" style="strokeWidth=2;html=1;shape=mxgraph.flowchart.terminator;whiteSpace=wrap;" vertex="1" parent="1">
          <mxGeometry x="540" y="693" width="100" height="60" as="geometry" />
        </mxCell>
      </root>
    </mxGraphModel>
  </diagram>
  <diagram id="PmNEdz7ORcvE5qFiXp-s" name="10 lac同步元数据">
    <mxGraphModel dx="1434" dy="773" grid="1" gridSize="10" guides="1" tooltips="1" connect="1" arrows="1" fold="1" page="1" pageScale="1" pageWidth="1827" pageHeight="1569" math="0" shadow="0">
      <root>
        <mxCell id="0" />
        <mxCell id="1" parent="0" />
      </root>
    </mxGraphModel>
  </diagram>
</mxfile>
